<?xml version="1.0" encoding="UTF-8"?>
<svg id="Layer_1" data-name="Layer 1" xmlns="http://www.w3.org/2000/svg" viewBox="0 0 834.13 414">
  <defs>
    <style>
      .cls-1 {
        fill: #eea98b;
      }

      .cls-2 {
        fill: #f9eb25;
      }

      .cls-3 {
        fill: #008a9e;
      }

      .cls-4 {
        fill: #eb4a1d;
      }

      .cls-5 {
        fill: #b1b19f;
      }
    </style>
  </defs>
  <path class="cls-4" d="M819.17,235.53c.49-.2,1.02-.4,1.54-.61-.27-.39-.57-1.12-.81-1.1-.49.04-.95.48-1.42.75.2.28.41.57.7.96M804.23,257.6c1.98.72,4,1.61,5.63-.83-2.44-2.39-4.03-.54-5.63.83M822.99,239.71c-1.71,1.57-3.04,2.24-3.41,3.25-.54,1.53-.7,3.34-.46,4.95.17,1.15,1.28,2.17,1.96,3.25.87-1,2.36-1.94,2.49-3.03.25-2.18-.25-4.44-.59-8.42M823.54,256.61c-6.8.27-8.63,2.36-6.87,7.15.99,2.7,2.59,5.19,3.91,7.77.47-.07.94-.14,1.41-.21.49-4.7.99-9.4,1.54-14.71M807.93,246.25c-1.21.25-2.43.5-3.64.74.12.28.23.56.35.84,1.07-.58,2.14-1.17,3.21-1.75,1.71.73,3.39,1.23,4.72-.67.89,1.07,1.79,2.15,2.68,3.22.26-.31.51-.62.77-.93-1.15-.76-2.3-1.51-3.44-2.27,1.08-.82,2.16-1.65,3.32-2.53-.95-1.9-2.11-2.24-3.52-.98-1.54,1.38-2.96,2.88-4.44,4.33M830.53,194.96c.22,2.46.61,4.91.64,7.37.17,15.32.18,30.64.41,45.96.19,13.19.68,26.37.9,39.55.59,34.89,1.11,69.79,1.64,104.68.02,1.49.04,3-.18,4.46-.71,4.52-3.27,6.31-8.84,6.17-6.38-.16-12.77-.69-19.15-.59-27.05.43-54.1,1.04-81.15,1.56-20.66.4-41.32.75-61.98,1.1-1.7.03-3.41.02-5.11-.15-4.98-.49-6.28-2.18-3.92-6.64,3.88-7.31,7.62-14.95,12.89-21.21,7.8-9.25,16.81-17.56,27.02-24.22,5.88-3.84,9.17-9.2,11.89-15.36,5.25-11.88,10.83-23.61,16.21-35.43,2.98-6.55,7.67-11.83,12.91-16.49,12.08-10.77,24.38-21.3,36.74-31.74,7.47-6.31,15.97-11.57,22.7-18.56,10.02-10.39,18.89-21.88,28.23-32.92,2.27-2.68,4.51-5.38,6.76-8.08.46.17.92.35,1.38.52"/>
  <path class="cls-1" d="M56.94,414H23.53c.23-1.09.19-2.18-.05-3.27-.18-.85-.44-1.73.35-2.46.11-.11.2-.43.13-.52-.68-.88.03-1.51.35-2.23.29-.64.52-1.3.82-2.06-.73-.27-1.25-.46-1.89-.7.03-.67-.01-1.35.12-2,.35-1.73.82-3.43.4-5.24-.15-.64-.13-1.29-.46-1.93-.3-.57-.35-1.28-.49-1.87,1.08-.9,1.1-.92.56-1.94-.31-.59-.42-1.13-.14-1.77.22-.5.09-.94-.43-1.23-.19-.1-.35-.28-.6-.49.41-.25.72-.44,1.05-.65-.05-.28-.07-.52-.14-.74-.31-.89-.77-1.76-.93-2.67-.1-.58.49-1.31.32-1.83-.2-.62-.97-1-.92-1.85.03-.52-.13-1.05-.2-1.58-.16-1.09-.32-2.18-.46-3.2.62-.3,1.1-.52,1.61-.77-.45-.64-.78-1.11-1.17-1.66-.1,0-.37-.02-.65-.04-.09-.91-.2-1.72-.24-2.54-.04-.76.65-1.53-.07-2.3-.06-.07.21-.4.24-.62.07-.55.2-1.13.1-1.66-.25-1.3-.63-2.58-.93-3.88-.06-.27,0-.57.03-.86.04-.53.16-1.06.11-1.58-.15-1.83-.43-3.65-.51-5.48-.05-1.09.22-2.19.27-3.28.03-.55-.02-1.13-.17-1.67-.11-.43-.24-.74-.02-1.22.17-.36-.03-.89-.08-1.34-.04-.37-.17-.74-.16-1.11.03-1.04.12-2.09.18-3.13.02-.28.14-.68,0-.83-.85-.92-.39-1.92-.24-2.9.12-.76.82-1.52,0-2.29-.04-.04-.02-.22.03-.25.8-.49.28-.79-.1-1.2-.18-.19-.26-.74-.12-.93.71-.98.27-1.94.05-2.91-.09-.41-.27-.84.26-1.15.11-.07.16-.52.06-.62-.58-.62.08-1.04.27-1.51-1.15-.34-.62-1.06-.61-1.9.27.39.39.57.56.82.04-.21.09-.34.08-.46-.17-1.38-.63-2.74-.35-4.16.04-.22-.08-.47-.13-.7-.3-1.29-.69-2.59.8-3.42-.61-.92-1.03-3.63-.76-4.61.05-.2.16-2.44.12-2.66-.05-.28-.12-.56-.18-.84-.22-1.09-.54-2.14-.06-3.3.44-1.06.55-2.21.32-3.4-.33-1.69-.5-3.4-.71-5.11-.06-.52-.12-1.09,0-1.59.38-1.52.64-3.01.02-4.53-.07-.17-.11-.42-.03-.56.55-.98.25-1.84-.43-2.63.58-.26,1.15-.48.49-1.11-.43-.41-.4-.79-.15-1.29.59-1.17.67-2.4.02-3.57-.44-.78-.54-1.52-.17-2.34.12-.25.19-.55.16-.82,0-.1-.35-.17-.65-.29,0-.59,0-1.35,0-2.1.93-.96.19-1.96.03-2.95v2.99c-.09-.27-.25-.54-.27-.81-.12-1.49-.22-2.98-.32-4.47-.02-.39,0-.79,0-1.18.07,0,.14,0,.2,0,.05.46.1.92.14,1.38-.06-.88.52-1.83-.26-2.63-.12-.12-.12-.57,0-.67.46-.39.14-.76.11-1.17-.05-.7-.03-1.42.07-2.11.1-.71.44-1.39.48-2.1.08-1.31-.77-2.66.15-3.95.04-.06,0-.19,0-.28-.12-.95-.19-1.9-.39-2.84-.14-.64-.45-1.24-.69-1.85h0c.15-1.48.91-2.9.45-4.45-.05-.18.21-.44.24-.67.06-.51.2-1.08.04-1.54-.37-1.09-.35-2.16-.22-3.28.07-.55,0-1.15-.15-1.68-.16-.58-.26-1.07-.04-1.68.26-.69.54-1.49.45-2.19-.26-1.98-.18-3.93.09-5.9.03-.2-.11-.42-.18-.64-.06.02-.12.03-.18.04-.06.41-.13.81-.19,1.22-.13-1.55-.08-1.52.55-2.84.19-.41.09-1.01-.02-1.49-.08-.34-.39-.62-.6-.92.48-.56,1.2-.91.92-1.75-.22-.68-.46-1.36-.65-1.91.26-.57.67-1.04.65-1.49-.03-.74-.14-1.65-.59-2.17-.66-.79-.15-1.56-.28-2.31-.23-1.37-.12-2.81-.15-4.21,0-.05,0-.11.02-.14.63-.63.32-1.39.35-2.12.13-3.33.43-6.66.44-9.99.01-4.84-.14-9.67-.3-14.51-.08-2.46-.33-4.91-.51-7.37-.1-1.49-.22-2.99-.3-4.48-.12-2.17-.24-4.35-.31-6.52-.07-2.13-.09-4.25-.13-6.38-.04-3.03-.08-6.06-.11-9.08,0-.17.06-.41.18-.51.62-.52.43-1.18.22-1.74-.51-1.35-.29-2.73-.27-4.1.03-1.2.11-2.39.16-3.59.06-1.47.21-2.93.16-4.4-.05-1.49-.14-2.97.06-4.45.04-.34-.22-.71-.34-1.07q.7-.96-.14-2.27c.74-1,.52-2.07.08-3.15-.12-.31-.27-.63-.28-.95-.03-1.08-.01-2.16-.05-3.24-.05-1.57.18-3.14-.39-4.67-.1-.28-.09-.77.09-.97.49-.58.22-1.07.02-1.62-.13-.36-.34-.72-.34-1.08,0-1.35.09-2.7.12-4.05.03-1.01.09-2.01.03-3.01-.05-.76-.82-1.48-.05-2.29.09-.1-.07-.45-.14-.68-.09-.32-.28-.63-.3-.96-.14-2.46-.3-4.92-.35-7.39-.03-1.68.14-3.37-.44-5.01-.09-.26-.07-.58-.07-.86.07-2.72-.38-5.4-.69-8.08-.05-.42-.09-.88.01-1.28.93-3.98,1.59-7.97.95-12.08-.09-.54.02-1.11.04-1.86.39.35.59.52.91.8-.05-2.53-.1-4.88-.16-7.24,0-.17-.09-.47-.19-.49-1-.25-.86-1.1-.84-1.76.05-1.38.24-2.75.39-4.12,0-.09.07-.19.14-.24.64-.45.38-1.05.01-1.36-.66-.55-.54-1.24-.48-1.86.12-1.14.37-2.27.59-3.4.16-.83.1-1.61-.17-2.42-.27-.8-1.31-1.49-.47-2.51.03-.04-.19-.23-.21-.35-.05-.37-.18-.79-.06-1.11.23-.62.33-1.18.05-1.8-.08-.18-.03-.5.09-.68.39-.61.42-1.16.2-1.88-.28-.9.32-2.02-.6-2.82-.03-.03.06-.18.07-.27.07-.83-.45-1.71.22-2.49.06-.07.02-.3-.05-.41-.45-.68-.37-1.17.32-1.71.62-.49.52-.98-.08-1.6-.16-.17-.37-.3-.47-.37,0-.54.01-.97,0-1.4-.06-2.07-.28-4.16-.15-6.22.16-2.45-.22-4.9.19-7.35.19-1.11-.12-2.3-.03-3.44.21-2.84.12-5.67-.17-8.49h11.91c.23.22.46.44.68.66.16-.22.32-.44.48-.66h.87c.02.14.04.28.07.43.09,1.06-1.28,1.01-1.6,2.18.97-.45,1.87.06,2.73-.76-.4-.49-.78-.96-1.15-1.43.98.07,2.02.51,2.86-.42h1.45c.86.99,1.9,1.11,3.14.79,1.31-.34,2.63-.16,3.94.37-.53.59-.53.56-.91.52-.81-.1-1.62-.2-2.43-.22-.45-.01-.97.24-.84.75.08.32.56.56.89.8.09.06.28,0,.42-.03,1.13-.18,2.25-.36,3.36-.53.06-.12.11-.2.13-.29.02-.09,0-.2.02-.29.27-.81,1.27-1.38,2.05-1.19.71.17.81.53.54,1.76-.02.08.04.18.06.27q.86.36,1.57.05c.89-.39,1.7-.07,2.11.82.13.28.27.56.54,1.13.42-.71.66-1.22,1-1.65.18-.24.53-.48.8-.48.27,0,.64.24.79.49.34.55.57,1.17.88,1.84q-.49,1.14.08,2.61c.05.13.1.29.07.42-.4,1.58-.13,3.15-.05,4.73.1,1.91-.07,3.83.19,5.73.09.66.03,1.34.62,1.86.2.17.22.59.23.9.03.48-.02.96-.02,1.44,0,1.25.02,2.51,0,3.76-.02.96-.15,1.92-.15,2.88,0,1.3.11,2.59.14,3.89.02.72-.09,1.44-.05,2.15.1,1.79.4,3.57.42,5.37,0,.67.07,1.38-.08,2.02-.44,1.8-.08,3.43.79,4.97-.14.24-.27.47-.43.74.41.25.73.45,1.16.71-.21.46-.45.87-.59,1.31-.32,1-.81,2.02-.84,3.04-.07,2.11.11,4.24.21,6.36.06,1.3.19,2.6.21,3.9.03,1.48-.03,2.97-.03,4.45,0,2.51,0,5.02.04,7.53.03,2.49-.15,4.97-.14,7.46.02,4.16-.02,8.31-.09,12.47-.02,1.04.4,2.13-.25,3.12.42,1.01.25,2.08.31,3.12.15,2.51.34,5.01.51,7.52.08,1.25.17,2.51.23,3.76.1,2.07.16,4.14.27,6.21.03.59.14,1.17.22,1.88-.3-.21-.44-.31-.56-.4,0,2.31-.02,4.61.01,6.92.01.86.16,1.72.21,2.59.06,1.01.08,2.02.11,3.04.04,1.18-.09,2.34-.76,3.34-.65.97-.59,1.88.03,2.84.19.3.37.69.35,1.03-.08,1.22.17,2.21,1.64,2.6v7.7c0,3.77,0,7.54,0,11.31,0,.24-.03.51.07.72.63,1.34.38,2.76.41,4.14,0,.33.04.78-.15.98-.92.97-.46,2.1-.53,3.16,1.08.48,1.15.54.72,1.56-.81,1.97-.39,4.11-.87,6.12-.05.22.03.49.09.72.71,2.49.69,5.05.82,7.6.19,3.7-.68,7.37-.36,11.07,0,.09-.02.19-.03.29-.14,1.3-.18,2.61-.45,3.88-.26,1.21-.87,2.35-.48,3.65.02.08-.03.19-.08.27-.83,1.28-.56,2.69-.5,4.08.09,2.02.1,4.05.15,6.07.03,1.4.07,2.79.11,4.19.07,2.56.18,5.11.21,7.67.04,3.14-.07,6.29.03,9.43.1,3.56.36,7.11.54,10.67.05.87.08,1.73.1,2.6.05,1.83.11,3.66.12,5.49.03,3.02.6,6.05-.16,9.07-.07.27.04.58,0,.86-.22,1.55.26,3.18-.55,4.69-.14.26,0,.75.15,1.06.49.99.66,1.98.42,3.09-.11.48.07,1.02.13,1.54.03.27.13.54.15.81.16,1.97.28,3.94.46,5.9.12,1.3.33,2.57.1,3.89-.16.92-.3,1.85.29,2.78.33.52.45,1.35.31,1.97-.25,1.14.06,2.24,0,3.36-.08,1.52.19,3.05.19,4.58.02,7.35.04,14.71-.03,22.06-.03,3.31-.29,6.61-.43,9.92-.03.82-.06,1.64-.03,2.46.02.72.17,1.43.16,2.15-.02,1.1-.14,2.21-.19,3.31-.02.57.03,1.14.03,1.71,0,.67-.02,1.35-.07,2.01-.17,1.88.45,3.79-.24,5.65-.07.19.08.46.1.69.12,1.55.56,3.12-.25,4.61-.28.53-.22,1.02.09,1.5.47.75.4,1.64.44,2.44.05,1.08-.26,2.18-.34,3.28-.07.88-.25,1.86.05,2.63.25.64.44,1.01.06,1.66-.2.34.04.93.06,1.4.05,1.29.38,2.65.06,3.83-.28,1.04-.08,1.73.44,2.51-.71,1.2-1.02,2.56-.61,3.78.41,1.23.01,2.64.95,3.72.09.1-.05.37-.04.56.04.66.13,1.32.16,1.99.02.52.03,1.05-.06,1.55-.19,1.03-.64,2.04.12,3.04.11.15,0,.46,0,.7l.06-.09c-.12.46-.49,1.09-.31,1.34.85,1.19.34,2.42.3,3.64-.01.52-.05,1.15.2,1.54.53.82.47,1.67.31,2.49-.24,1.22.37,2.5-.29,3.68-.03.06.04.18.07.27.38,1.42.47,2.84.18,4.29-.06.32-.02.68.01,1.01.14,1.42.46,2.84-.1,4.24-.17.42-.15.79.19,1.2.19.23.11.7.14,1.07M37.33,94.09c.12,0,.24.01.36.02.72-.89.66-2.06.18-2.87-.63-1.08-.51-2.01-.14-2.98.32-.85-.08-1.11-.72-1.34-1.06,1.39-.23,2.88-.36,4.29-.09.93.43,1.92.68,2.88M39.3,70.73c-.5.43-.8.66-1.07.92-.69.64-.87,1.48-.71,2.35.06.35.43.82.75.91.53.15.69-.41.79-.82.2-.82.38-1.65.5-2.49.04-.26-.15-.55-.26-.86M41.62,67.21c.24.38.44.69.67,1.05.66-.3,1.62.2,1.87-.84-.76-1.72-2.39-.42-3.41-1.24-.29.49-.52.89-.72,1.24.67.88,1.01-.02,1.6-.21M40.43,148.26c1.23-.65,1.26-.86.32-1.91-.11.65-.19,1.16-.32,1.91M36.42,86.96q.3-1.25-.99-1.43c-.08.71.23,1.12.99,1.43M30.91,1.96c-.27-.18-.46-.4-.6-.38-.15.02-.28.27-.41.42.18.11.35.27.54.31.1.02.25-.18.47-.36M46.39,5.66c-.28-.16-.46-.35-.56-.31-.19.07-.33.27-.49.41.13.11.28.33.38.31.19-.04.36-.21.67-.41M39.77,74.66c.2.62.49.66.8.37.09-.09.05-.33.07-.5-.28.04-.56.09-.87.14M33.05,1.77c-.17-.16-.28-.3-.42-.37-.05-.02-.28.18-.26.22.06.15.17.3.29.4.03.02.2-.13.39-.25M41.01,145.88c.1.07.21.14.31.2.11-.22.22-.45.33-.67-.08-.05-.16-.09-.24-.13-.14.2-.27.4-.41.6M37.3,147.28c-.12,0-.25,0-.37.01.03.27.06.54.1.8.09,0,.18-.02.28-.03v-.79ZM36.61,261.22c-.02.11-.05.22-.07.32.33.04.66.07.99.11.02-.08.03-.16.04-.24-.32-.07-.64-.13-.97-.2M43.68,97.38c-.17-.15-.26-.24-.35-.32-.1.13-.23.24-.29.39-.02.05.19.26.24.24.14-.05.24-.18.4-.32M22.39,199.71c-.09.04-.18.07-.28.11.11.26.21.52.32.79.06-.02.12-.04.19-.07-.08-.28-.15-.55-.23-.83M21.07,315.94c.05.06.09.11.14.17.2-.15.4-.31.6-.46-.06-.08-.12-.15-.18-.23-.19.17-.38.34-.57.52M45.48,3.71c-.05.19-.14.34-.1.43.04.1.2.15.31.22.05-.12.15-.25.13-.34-.03-.1-.18-.17-.34-.31M39.25,68.66c-.18-.22-.27-.36-.39-.47-.03-.03-.23.06-.22.08.03.16.06.33.14.48.02.04.22-.04.48-.08M17.4,156.95c-.16-.09-.25-.16-.36-.19-.02,0-.14.16-.12.21.04.11.14.19.21.29.08-.09.15-.17.28-.31M46.1,82.35c.08,0,.17.02.25.03.04-.08.14-.18.11-.24-.05-.13-.16-.24-.24-.36-.04.19-.08.39-.12.58M29.37,139.76c.03-.1.07-.19.11-.29-.16-.04-.32-.07-.48-.1,0,0-.04.11-.03.11.13.1.27.18.4.27M193.78,414h-35.73c-.04-.38-.13-.76-.12-1.14.02-2.7.04-5.4.11-8.1.07-3.17.28-6.33-.17-9.49-.13-.88.02-1.8.07-2.71.11-2.01.43-4.04.28-6.03-.09-1.08-.09-2.07.16-3.1.08-.31,0-.67-.01-1-.01-.52-.02-1.04-.03-1.56-.01-.57,0-1.15-.04-1.72-.06-1.01-.15-2.01-.24-3.02-.05-.61-.33-1.32-.13-1.82.37-.89.14-1.7.09-2.55-.08-1.39-.04-2.79-.11-4.18-.13-2.5-.3-5.01-.46-7.51-.03-.48.07-1.08-.18-1.4-.42-.54-.36-1.08-.34-1.64.05-2.07.14-4.15.2-6.22.03-.91.03-1.83.04-2.74,0-.72,0-1.44,0-2.42-.23.4-.3.52-.42.72-.03-.26-.09-.44-.07-.62.08-.76.23-1.52.26-2.29.07-1.71.1-3.42.11-5.13,0-1.59,0-3.18-.07-4.77-.02-.53-.3-1.05-.32-1.59-.11-2.31-.18-4.62-.24-6.93-.08-3.47-.15-6.94-.21-10.42-.04-2.41-.08-4.83-.1-7.24-.02-2.4-.07-4.81,0-7.21.06-1.97-.25-3.91-.04-5.9.15-1.46-.21-2.97.12-4.46.02-.08-.02-.2-.06-.28-.52-.85-.1-1.57.4-2.34-.94-.63-.79-1.46-.53-2.33.1-.32.29-.73.16-.96-.59-1.1-.2-2.27-.37-3.4-.09-.59-.11-1.18-.16-1.78.06,0,.11-.02.17-.03.12.2.23.4.35.6-.07-1.03-.43-1.99-.5-2.97-.07-.99.14-2,.25-3.22.1-.12.37-.43.7-.81-.75-.41-.94-.96-.88-1.73.12-1.35.1-2.71.12-4.06,0-.29-.03-.57-.06-.86-.13-1.48-.21-2.98-.4-4.45-.24-1.79.65-3.62-.15-5.39-.03-.08-.03-.24.02-.27.58-.38.21-.71.07-1.17-.17-.54-.13-1.19-.03-1.76.26-1.44.42-2.85-.23-4.24-.13-.29-.09-.67-.09-1-.01-1.88,0-3.77-.01-5.65,0-2.73,0-5.45-.03-8.18,0-.57-.21-1.14-.22-1.72,0-.62.11-1.24.17-1.86.06-.55.12-1.11.17-1.66.04-.39.19-.83-.35-1.02.43-1.12-.2-2.23-.04-3.35.17-1.16.32-2.31.21-3.51-.14-1.52,0-3.07,0-4.6,0-.95.22-1.98-.06-2.85-.58-1.82-.05-3.62-.15-5.43-.04-.82.31-1.65-.14-2.47-.1-.18-.1-.56.02-.68.71-.75.47-1.47.04-2.23-.09-.15-.07-.38-.07-.57-.04-2.2-.16-4.39-.36-6.59-.2-2.15-.06-4.32-.05-6.48,0-1.4.06-2.79.04-4.19-.01-.82-.17-1.63-.19-2.44-.04-1.74-.01-3.47-.04-5.21-.09-5.69-.19-11.39-.28-17.08-.05-2.99-.1-5.98-.15-8.96-.04-2.99-.06-5.98-.11-8.96-.05-3.14-.15-6.27-.19-9.4-.04-3.09-.05-6.18-.06-9.27,0-.57.22-1.19.08-1.72-.23-.86.49-1.52.24-2.39-.26-.9-.36-1.88-.37-2.82-.02-1.77.51-3.51.17-5.31-.15-.83.01-1.71.04-2.58.04-.97.13-1.93.13-2.9,0-2.89,0-5.78-.08-8.67-.05-1.82.35-3.66-.32-5.45-.11-.3-.19-.73-.06-.99.76-1.5-.38-3.05.16-4.54-.6-1.71-.08-3.45-.12-5.17,0-.32-.07-.64-.11-.96-.06-.51-.15-1.02-.17-1.53-.02-.53.08-1.06.05-1.58-.11-1.93-.32-3.85-.38-5.77-.09-2.94-.1-5.89-.14-8.83,0-.34-.09-.71.02-1.01.55-1.52.01-3.05.05-4.57.06-2.3-.21-4.61-.34-6.92-.01-.19,0-.39.01-.58.06-1.28.2-2.57.17-3.85-.04-1.3-.3-2.58-.37-3.88-.07-1.3-.18-2.63.02-3.9.16-1.02.14-1.99.04-2.99-.06-.71.06-1.43.1-2.14.01-.19.08-.38.05-.56-.22-1.28-.45-2.55.11-3.82.1-.23.04-.58-.04-.85-.55-1.63-.27-3.25-.06-4.88.12-.9.12-1.83.08-2.73-.07-1.47-.26-2.93-.32-4.4-.04-1.24.05-2.49.05-3.74,0-1.49-.03-2.98-.03-4.47,0-.91.04-1.82.02-2.72-.03-1.24-.1-2.49-.15-3.73h2.32c-.41.24-.82.48-1.27.75h3.2c-.23-.36-.35-.55-.47-.75h3.49c-.34,1.35-.16,1.52,1.79,1.82.82-.66,1.54-1.24,2.27-1.82h.58c.47.8.47.8,1.45,0h6.39c.35.43.7.86,1.08,1.32.7-1.03,1.09-1.09,2.13-.78.76.22,1.59.39,2.37.34,1.55-.11,3.1-.37,4.64-.59.38-.05.74-.19,1.11-.29h4.94c-.31.35-.62.69-.95,1.06.27.34.85.26.9.94.18,2.7.51,5.38.71,8.08.13,1.78.11,3.57.17,5.36.1,2.75.25,5.51.32,8.26.08,3.09.08,6.18.12,9.26.04,2.85.09,5.7.12,8.55.02,2.17.05,4.33.04,6.5-.03,2.94-.14,5.89-.14,8.83-.01,4.11.04,8.22.05,12.33.01,3.38,0,6.76,0,10.14,0,1.78-.02,3.56-.03,5.35-.01,1.73-.06,3.46-.04,5.2.02,1.74.14,3.48.16,5.22.01,1.88-.08,3.76-.07,5.64.01,1.59.15,3.18.14,4.77,0,1.06-.07,2.14-.27,3.17-.2,1.03.47,1.93.15,3.02-.25.87.06,1.89.04,2.85-.02,1.16-.18,2.32-.16,3.47.05,2.26.21,4.51.28,6.77.02.77-.08,1.54-.13,2.3-.03.38-.11.77-.09,1.15.05,1.73.17,3.47.18,5.2,0,1.98-.14,3.95-.12,5.93.03,2.97.16,5.94.2,8.91.02,1.35-.15,2.7-.12,4.05.03,1.74.19,3.47.24,5.21.04,1.14.28,2.4-.1,3.41-.49,1.28-.4,2.52-.2,3.69.31,1.77.18,3.54.3,5.3.23,3.56-.11,7.12.21,10.69.23,2.55.07,5.13.11,7.69.01.75.15,1.5.16,2.25.03,1.96-.03,3.92.03,5.89.08,3.13.27,6.26.33,9.39.04,2.02-.06,4.04-.07,6.06,0,1.35-.06,2.72.1,4.05.24,2.02.6,4.01.01,6.02-.06.21.05.46.07.7.08.76.2,1.52.21,2.29.02,1-.07,2-.09,3.01-.04,1.62-.06,3.29.09,4.86.16,1.74-.19,3.31-.39,4.96-.02.14-.03.29-.04.43-.11,3.32-.03,6.62-.56,9.95-.54,3.37-.53,6.84-.63,10.27-.09,3.01.18,5.99,1.22,8.85.21.58.4,1.2.46,1.81.15,1.53.22,3.06.31,4.6.03.53-.07,1.07.03,1.58.4,1.94.3,3.92.36,5.87.08,2.4-.04,4.8,0,7.2.03,1.86.11,3.73.27,5.58.29,3.38-.22,6.77.27,10.16.26,1.84.24,3.76.07,5.62-.1,1.11.59,2.34-.39,3.29.18.47.48.87.48,1.26,0,2.68-.07,5.36-.1,8.04,0,.76.15,1.53.05,2.28-.08.59-.19,1.12.14,1.67.13.22.1.55.09.83-.03.97-.12,1.93-.1,2.9.04,1.56-.67,3.15.15,4.69.06.11-.03.28-.03.43-.01.72-.02,1.44-.02,2.16,0,.82.14,1.66,0,2.46-.28,1.77.34,3.55-.16,5.31-.06.2.12.46.14.7.02.47,0,.95-.01,1.42,0,.27-.07.55-.05.82.08.9.21,1.8.26,2.71.05.82,0,1.64.03,2.45.07,2.11.19,4.22.24,6.34.06,2.36.06,4.72.1,7.08.05,2.65.12,5.3.17,7.96.03,1.83.06,3.67.07,5.5,0,.86-.06,1.72-.03,2.58.04,1.1.13,2.19.22,3.29.06.72.42,1.54.19,2.13-.68,1.68.1,3.37-.23,5.05-.21,1.07.18,2.26.3,3.39.03.29.14.6.06.86-.35,1.11-.06,2.19.05,3.29.25,2.59-.25,5.17.03,7.76.2,1.87.16,3.76.23,5.64M190.36,217.55c-.08,0-.16,0-.24,0v1.77s.09,0,.14,0c.03-.59.07-1.18.1-1.76M145.26,0h1.45c.23.5.62.98.67,1.5.13,1.48.12,2.97.17,4.46.08,2.31.17,4.61.24,6.92.13,4.45.26,8.9.37,13.34.07,3.05.08,6.09.17,9.14.12,4.4.34,8.8.4,13.2.13,8.6.2,17.2.27,25.8.02,1.82-.09,3.64-.13,5.47-.02.96-.27,1.99.02,2.85.49,1.48.07,2.92.2,4.38.16,1.86-.02,3.75-.01,5.62,0,1.49-.09,3,.14,4.46.15.98.15,1.85-.1,2.78-.1.37.13.83.24,1.24.15.55.38,1.06-.1,1.62-.2.24-.27.98-.15,1.05.84.46.54.89.12,1.42-.13.16-.17.51-.09.69.58,1.25.52,2.47,0,3.71-.02.04,0,.1,0,.14.09,1.3.2,2.59.27,3.89.13,2.43.24,4.87.35,7.3.03.77,0,1.54.03,2.3.09,3.23.21,6.47.29,9.7.05,2.12.28,4.28.03,6.37-.24,2.08.13,4.11.08,6.17-.08,2.73.12,5.45.35,8.18.18,2.11.08,4.23.14,6.35.11,3.57.28,7.14.39,10.71.05,1.83.01,3.66.03,5.49,0,1.2-.02,2.37.24,3.58.18.85-.05,1.87-.04,2.83.02,1.97-.16,3.93-.17,5.9,0,.96-.45,1.93.08,2.92.19.35.14,1.03-.09,1.35-.41.57-.18,1.1-.19,1.65,0,.42.07.88-.07,1.26-.21.57-.21,1.08-.08,1.66.1.45-.05.95-.09,1.43-.03.33-.16.69-.09.99.52,2.16.29,4.3-.11,6.43-.2,1.05-.33,2.05.17,3.11.29.61.2,1.41.24,2.12.04.62,0,1.25.04,1.88.12,1.82.28,3.64.36,5.46.02.36.42,1.03-.46,1.08-.01,0-.06.31,0,.41.48.7.25,1.49.31,2.24.09,1.09.17,2.18.26,3.26.02.28.15.59.07.85-.18.64-.43,1.19-.15,1.93.22.6-.08,1.37-.05,2.06.02.62.25,1.23.26,1.84.04,2.6.01,5.2.06,7.8.06,3.32.19,6.65.25,9.97.03,1.49-.09,2.99-.07,4.49.03,2.45.12,4.89.16,7.34.02,1.4.01,2.8-.02,4.19-.03,1-.11,2-.19,2.99-.05.63.03,1.34-.23,1.88-.58,1.2-.36,2.29-.01,3.5.5,1.72.71,3.51.46,5.32-.05.38-.09.78-.02,1.15.19,1.06.17,2.1-.04,3.15-.08.41-.12.91.04,1.26.42.91.78,1.77.22,2.75-.07.12.06.35.07.53.08.99.22,1.99.2,2.98-.02.8-.49,1.58.09,2.38.14.19.15.64.02.84-.7,1.1-.24,2.32-.44,3.15.34.5.71.79.66,1.01-.25,1.25-.39,2.49-.28,3.78.1,1.17.05,2.36.05,3.54,0,1.84.57,3.7-.1,5.53-.04.12.02.28.06.42.46,1.52.21,3.05.17,4.59-.04,1.61.06,3.23.14,4.84.04.91.22,1.82.23,2.73.02,1.54.01,3.08-.1,4.61-.11,1.45.05,2.87.16,4.32.17,2.3-.06,4.61.14,6.94.22,2.52,0,5.08.02,7.62,0,.61.35,1.31.15,1.83-.4,1.04-.2,1.97,0,2.97.15.79.14,1.62.14,2.43,0,1.1-.09,2.2-.08,3.29.02,1.93.14,3.86.11,5.79-.06,3.84-.36,7.68.31,11.52.25,1.44.04,2.98-.12,4.46-.22,2.06-.39,4.1,0,6.16.09.45.06.93.06,1.4-.01,1.48-.04,2.96-.05,4.45,0,.19.08.38.12.57.61,2.57.33,5.2.52,7.79.01.19-.03.39-.11.57-.34.75-.24,1.48-.04,2.26.22.83.38,1.7-.05,2.55-.12.24-.11.56-.08.84.14,1.42.39,2.82.45,4.24.04.94-.17,1.89-.26,2.84h-35.44c.02-.96-.02-1.92.07-2.87.11-1.16-.45-2.39.34-3.42-.73-1.43-.71-1.43-.72-2.96-.02-1.84-.06-3.67-.11-5.51-.07-2.59-.09-5.17.14-7.76.06-.72-.12-1.47-.19-2.2-.05-.52-.16-1.05-.16-1.57,0-.62.19-1.25.14-1.87-.11-1.22-.04-2.42.03-3.63.08-1.45-.35-2.93-.33-4.4.02-1.67.21-3.33.05-5.01-.14-1.41.06-2.86.06-4.29,0-.96-.14-1.92-.13-2.88,0-1.73.11-3.45.11-5.18,0-2.84-.02-5.67-.07-8.51-.01-.71-.25-1.42-.26-2.13-.03-2.05.02-4.11,0-6.16-.01-1.04-.17-2.09-.16-3.13.01-1.19.16-2.37.21-3.56.02-.38-.07-.76-.11-1.14-.07-.56-.23-1.13-.22-1.69.03-.82.18-1.63.28-2.45.03-.28.16-.61.07-.85-.22-.59-.76-1.04,0-1.75.27-.25-.04-1.22-.22-1.82-.33-1.06-.33-2.08-.03-3.13.1-.36.28-.89.11-1.11-.56-.73-.32-1.48-.3-2.26.02-.8-.08-1.6-.12-2.4,0-.18,0-.36,0-.54-.12-1.34-.29-2.67-.37-4.01-.05-.91-.31-2,.08-2.7.73-1.3-.69-2.55.21-3.72-.9-1.12,0-2.29-.07-3.44-.07-1.15.53-2.37-.38-3.44-.08-.09-.13-.31-.08-.41.57-1.08,0-2.16.04-3.24.03-.57.29-1.16.18-1.68-.45-2.14-.4-4.31-.44-6.47-.01-.56.25-1.21.06-1.68-.3-.74-.07-1.3.15-1.94.15-.45.29-.92.29-1.39,0-1.04-.21-2.1-.11-3.13.17-1.86-.32-3.72.1-5.56-.56-1.37-.26-2.84-.46-4.25.46-.59.24-1.19,0-1.79-.64-3.02-.18-6.09-.46-9.13-.25-2.73-.08-5.49-.13-8.24-.05-2.54-.14-5.09-.23-7.63-.03-.72-.17-1.43-.18-2.15-.03-1.52-.42-3.09.35-4.26-.21-.65-.42-1.06-.46-1.48-.12-1.41-.06-2.81.45-4.14.2-.51.23-.94-.26-1.28-.54-.38-.54-1.03-.35-1.45.41-.87,1.1-1.64,0-2.49-.01,0,.12-.16.12-.24,0-.25-.15-.55-.05-.73.08-.16.46-.15.62-.3.11-.1.16-.43.08-.53-.81-.95.11-2.35-.86-3.28-.11-.1-.06-.61.05-.67.65-.35.36-.95.35-1.39-.04-1.42-.2-2.83-.31-4.19.42.38.53,0,.57-.37.07-.81.09-1.61.15-2.42.07-.96.27-1.93.23-2.88-.14-2.88-.34-5.75.03-8.63.01-.1,0-.19,0-.29,0-2.11,0-4.22-.01-6.34,0-.58-.09-1.16-.15-1.73-.08-.67-.2-1.34-.26-2.01-.15-1.92-.17-3.86-.45-5.77-.28-1.89.23-3.79-.43-5.7-.41-1.16-.31-2.59-.12-3.85.27-1.76.08-3.46-.07-5.19-.05-.65.17-1.33.3-2.25-.45-.42-.75-1.08.18-1.77.16-.12.2-.43.24-.66.21-1.12.81-2.28-.31-3.3-.14-.13-.11-.46-.12-.7-.19-3.38-.37-6.75-.56-10.12-.03-.53-.14-1.05-.17-1.58-.03-.52,0-1.04,0-1.66-.94-.19-.6-.99-.59-1.8.28.26.48.45.64.6.18-.15.35-.33.55-.46.74-.49.87-1.09.73-1.99-.16-1.02.05-2.1.13-3.15.01-.16.17-.42.29-.44.57-.09.55-.56.74-.94.84-1.67.15-3.4.25-5.1,0-.04-.15-.09-.26-.16-.16.41-.31.81-.51,1.33-.31-.63-.55-1.11-.78-1.58-.13.03-.27.06-.4.09-.02.43-.23,1.01-.03,1.27.48.62.24,1.05-.17,1.62-.2-.84-.38-1.62-.58-2.5-.3.23-.5.38-.86.66,0-.6,0-1.07,0-1.54.02-.86.06-1.71.06-2.57,0-2.08-.13-4.16.02-6.23.1-1.48.34-2.94.08-4.42-.11-.61-.38-1.2-.41-1.81-.09-2.46-.13-4.93-.15-7.4,0-.24.22-.68.34-.68.8-.02.6-.59.66-1.03.07-.61-.11-1.26.24-1.98.23.56.39.95.55,1.33.13-.02.25-.05.38-.07v-4.03c.1,0,.2,0,.3-.01.24.65-.17,1.5.55,2.16.53-1.17.19-2.14-.09-3.16-.6.06-1.11.11-1.65.17-.17-.55-.34-1.11-.52-1.67-.09,0-.18.02-.27.02-.13.31-.27.61-.4.92-.18-.34-.3-.72-.17-.96.74-1.32.13-2.72.11-4.02-.03-1.94-.19-3.9-.21-5.86,0-.63,0-1.23.57-1.71.57-.48.59-1.14.06-1.66-.71-.69-.93-1.6-.67-2.4.41-1.29.11-2.46.03-3.73-.28-4.23-.67-8.48-.2-12.71.18-1.59-.24-3.22.4-4.77.07-.18-.06-.46-.13-.68-.14-.46-.29-.91-.44-1.36-.58-1.77-.05-3.8-1.58-5.54,1.21-.28,1.1-1.12,1.18-1.88.13-1.19.11-2.34-.07-3.56-.21-1.48-.63-3.05-.02-4.58.1-.24-.04-.57-.05-.86-.1-1.64-.24-3.28-.27-4.92-.02-.89.16-1.79.22-2.46-.19-1.01-.45-1.83-.48-2.66-.07-2.27,0-4.54-.07-6.82-.07-2.7-.27-5.4-.32-8.1-.06-3.51-.04-7.03-.03-10.54,0-1.64.07-3.29.12-4.93.03-.81.11-1.62.17-2.43.04,0,.16-.04.21,0,.42.32.9.35,1.07-.16.11-.32-.1-.81-.31-1.13-.17-.26-.55-.38-1.04-.69.65,0,1.08.11,1.4-.02.71-.31,1.39-.24,2.12-.17,1.95.19,3.91.31,5.87.45.18.01.38-.08.57-.08.85.01,1.69.04,2.54.07,0,.14,0,.27,0,.41-1.28.02-2.57-.08-3.83.08-1.28.15-2.61-.27-4.08.12.89.62,1.57,1.07,2.22,1.57.67.51,1.41.58,2.2.49.96-.12,1.91-.21,2.87-.33,1.26-.16,2.15-1.03,2.22-2.3,1.18,0,2.38.12,3.55-.03,1.2-.16,2.54.3,3.52-.74.94.81.94.83,2.09.84.63,0,1.26-.04,1.89-.07.9-.05,1.8-.11,2.89-.18.21-.15.55-.53.97-.71,1.68-.68,3.4-1.29,5.1-1.93M133.83,176.32c-1.57,2.69-1.57,2.73-.5,3.4.97-.23,1.76-.42,2.86-.67-.95-.3-1.56-.5-2.27-.73.36-.69.61-1.18.91-1.75-.4-.1-.67-.16-1-.24M136.74,141.2c.48-.59.95-.9.97-1.25.07-.98-.03-1.97-.07-3.02-.86.18-1.38.53-1.29,1.36.08.84.22,1.68.39,2.9M133.49,69.01c-.64-.48-.14-1.64-1.17-1.89-.51.35-.99.68-1.6,1.11.64.11,1.09.19,1.54.27q.38,1.18,1.22.52M119.06,141.19c.91-.64.6-1.23.28-2.03-.66.66-.66,1.22-.28,2.03M124.92,68.24c-.1.8-.27,1.35.48,1.45.17.02.39-.28.67-.5-.38-.31-.65-.53-1.15-.95M121.44,178.27c-.75.09-1.38.1-1.02,1.14.48-.24,1.12-.17,1.02-1.14M143.96,2.5c.11-.03.22-.06.33-.09.07-.42.18-.84-.62-1.19.13.57.21.92.3,1.28M131.8,69.29c-.52-.34-.75-.6-.92-.57-.19.04-.47.35-.46.53.01.19.32.49.51.5.23.01.47-.23.88-.47M121.9,81.33c-.59-.14-.97-.07-1.27.48.64.33.97.16,1.27-.48M113.95,130.03c.54-.6.14-.88-.3-1.15.1.39.2.77.3,1.15M135.4,126.85c-.53.39-.5.74-.26,1.09.05.08.23.08.51.16-.09-.45-.16-.79-.25-1.25M149.85,406.17c.09.06.18.12.28.18.19-.2.39-.41.58-.61-.18-.12-.36-.23-.54-.35-.11.26-.21.52-.32.79M114.95,90.67q-.34.51,0,.94v-.94ZM113.69,113.38s.07,0,.11,0v-1.19s-.07,0-.11,0v1.19ZM125.35,77.64c-.15-.18-.23-.35-.3-.35-.17,0-.33.1-.49.15.08.14.14.37.25.4.13.03.31-.1.54-.2M118.17,65.11c.12-.02.24-.04.35-.06-.05-.21-.09-.42-.16-.61,0-.02-.22.04-.34.07.05.2.1.4.15.61M130.33,185.04c.09-.08.18-.16.27-.24-.13-.17-.27-.33-.4-.5-.09.09-.26.24-.24.27.1.17.25.31.38.46M119.95,137.17h-.16v1.2h.16v-1.2ZM114.17,125.22c-.1-.08-.21-.19-.22-.18-.1.07-.18.18-.27.27.09.07.21.21.26.18.1-.05.16-.18.24-.28M123.85,78.7c-.19-.14-.33-.3-.38-.28-.13.05-.24.19-.3.32-.02.05.17.26.23.24.14-.04.26-.16.45-.28M191.91,4.17c-.12,2.8-.33,5.58.01,8.38.07.61-.09,1.24-.1,1.87-.03,4.68-.11,9.36-.07,14.04.03,3.61-.05,7.22-.04,10.84,0,3.58-.04,7.16-.06,10.74-.02,4.84-.07,9.67-.06,14.51.01,3.67.11,7.35.15,11.02.02,2.13-.14,4.27.01,6.38.26,3.67-.07,7.32-.02,10.99.06,4.3-.07,8.61-.11,12.91,0,.43.01.87.05,1.3.1,1.13.29,2.21-.03,3.39-.29,1.07,0,2.3-.01,3.46-.03,3.53-.13,7.05-.11,10.58.02,4.19.18,8.39.18,12.58,0,3.38-.17,6.76-.2,10.13-.02,2.03.13,4.06.13,6.09,0,2.07-.1,4.14-.12,6.21,0,1.16.1,2.32.12,3.48.05,2.66.07,5.31.13,7.97.03,1.48.16,2.96.18,4.44.02,1.59-.07,3.18-.03,4.77.04,1.3.23,2.59.3,3.89.05,1,.13,2.03-.03,3.01-.19,1.14.02,2.2.16,3.3.07.52-.03,1.06-.06,1.59-.02.33-.17.7-.08.99.47,1.68,0,3.36.02,5.04.02,1.73-.01,3.47-.02,5.2,0,.24.02.48.03.72.09,1.83.21,3.66.27,5.5.05,1.81.01,3.62.05,5.44.04,1.72-.1,3.43.16,5.16.13.85.15,1.84-.18,2.81-.32.95-.09,2.08-.07,3.14.03,1.35.08,2.7.14,4.05.03.72.1,1.44.15,2.16.03.38.18.83.04,1.14-.58,1.35.04,2.63.08,3.94-.81.35-.87.56-.7,3.02.3-.69.51-1.16.72-1.63.07,0,.15,0,.22.01.03.4.08.81.09,1.22.01,1.06.09,2.13-.01,3.18-.31,3.28.48,6.48.57,9.73.04,1.79.18,3.57.23,5.35.02.67-.07,1.34-.12,2.01-.24,3.08-.62,6.16-.7,9.25-.09,3.42.11,6.86.16,10.28.04,2.7.2,5.41.07,8.11-.17,3.58.11,7.14.09,10.71,0,1.49.08,2.98.07,4.47-.01.89.36,1.69.18,2.67-.26,1.43-.03,2.95,0,4.43.07,2.74.19,5.47.22,8.21.04,4.49-.02,8.97.03,13.46.02,1.93.24,3.85.28,5.77.05,2.1,0,4.21-.03,6.31,0,.19-.12.4-.08.57.85,3.28.24,6.62.46,9.93.1,1.48.26,2.96.32,4.44.12,2.8.19,5.6.29,8.4.07,1.97.18,3.95.23,5.92.06,2.26.04,4.52.12,6.78.09,2.26.31,4.52.38,6.79.09,2.79.1,5.59.11,8.38.01,2.22-.03,4.44-.01,6.66,0,.98.04,1.95-1.03,2.77.52.06.77.09,1.13.14.05.34.14.71.14,1.08.02,2.75.02,5.49.03,8.24h34.86c.11-.42.22-.84.34-1.34-.21-.25-.45-.54-.68-.81.02-.18.01-.33.07-.46.42-.95.73-1.9.22-2.92-.08-.16-.11-.38-.07-.56.7-3.13.4-6.3.4-9.45,0-1.92.03-3.83,0-5.75-.02-.96-.18-1.92-.22-2.88-.07-1.83.03-3.68-.19-5.49-.32-2.71-.05-5.43-.18-8.14-.09-1.92-.11-3.82-.43-5.72-.16-.92.08-1.9.08-2.86,0-1.3-.05-2.6-.08-3.89-.03-1.42-.03-2.85-.08-4.27-.07-1.96-.18-3.91-.27-5.87,0-.19,0-.4-.08-.57-.72-1.64-.4-3.38-.41-5.07-.02-1.96.13-3.93.09-5.89-.02-1.13-.25-2.26-.39-3.4-.01-.09-.09-.2-.07-.28.63-2.09-.56-4.07-.38-6.14.05-.62-.12-1.25-.1-1.88.02-.57-.03-1.26.27-1.67.4-.57.46-1,.18-1.58-.07-.14-.03-.36.02-.53.26-.91-.15-1.47-.92-1.87-.21-.11-.44-.21-.63-.36-.71-.56-.69-1.11.05-1.61.33-.22.67-.43,1.07-.69-.24-.25-.32-.37-.43-.44-.9-.65-1.05-1.02-.6-1.9.43-.83.96-1.62,1.44-2.42.08-.13-.02-.08-.33-.77-.4-.9-.82-1.82-.3-2.89.46-.95.66-2.01.33-3.07-.12-.39-.25-.8-.46-1.15-.49-.82-.49-.87.25-1.68.18-.2.29-.48.46-.78-.36-.3-.7-.56-1.01-.85-1.01-.92-.95-1.41.17-2.1.96-4.48.87-8.88-.41-13.42.1-.19.3-.51.44-.86.15-.35.42-.79.32-1.09-.53-1.59.05-3.2-.13-4.8-.19-1.71-.04-3.46-.04-5.25-.2-.14-.38-.28-.58-.41-.78-.49-.94-.83-.63-1.65.15-.4.47-.75.13-1.2-.51-.68-.31-1.3.25-1.8.64-.56.51-1.24.07-1.65-.83-.77-.71-1.5-.26-2.34.36-.68.48-1.31-.02-2.02-.64-.9-.57-1.94-.19-2.91.63-1.6.24-3.23.4-4.9-.96-.22-1.83-.38-2.23-1.3,1.08-.93,1.35-2.23,1.72-3.46.73-2.41.15-4.88.19-7.32.05-2.56,0-5.12.07-7.68.08-3.03.2-6.06.34-9.09.14-3.06-.04-6.13.46-9.17.07-.41.05-.69-.47-.88-.39-.14-.51-.72-.13-.97,1.31-.86.65-2.13.64-3.19,0-.59-.18-1.15.01-1.78.15-.48.03-1.05.03-1.55-.18-.12-.29-.25-.42-.27-.52-.09-1.15-.09-1.22-.78-.06-.65-.11-1.38.56-1.82.67-.44,1.14-.92.58-1.77-.08-.13-.07-.41.02-.55.63-.99.34-2.06.33-3.12,0-.67.07-1.35.03-2.02-.08-1.22-.26-2.44-.31-3.66-.06-1.57-.05-3.15-.04-4.73.02-2.12.15-4.23.11-6.35-.05-2.49-.28-4.98-.36-7.47-.05-1.73.03-3.46.03-5.2,0-.53-.03-1.07-.11-1.59-.22-1.53-.23-3.05-.04-4.59.1-.84.06-1.77-.19-2.57-.28-.87-.22-1.68-.21-2.56.07-3.67-.11-7.35.15-11,.15-2.07-.21-4.11.01-6.19.25-2.32-.07-4.7-.11-7.05-.02-.97.07-1.93.08-2.9.02-.81,0-1.62,0-2.43,0-2.21.01-4.42.02-6.63,0-2.26.01-4.52,0-6.78,0-1.2-.07-2.4-.07-3.6,0-.58.09-1.15.15-1.73.04-.38.14-.76.15-1.14.04-2.51.17-5.02.06-7.52-.05-1.16-.28-2.31-.34-3.49-.12-2.27,0-4.52.21-6.78.13-1.44.17-2.87.45-4.31.16-.81-.09-1.7-.16-2.56,0-.09-.07-.19-.07-.28.1-2.11.21-4.22.32-6.32.01-.24.05-.48.03-.72-.28-4.64.42-9.26.35-13.9-.06-3.71-.02-7.43.02-11.15.01-1.35.17-2.69.2-4.04.04-1.78.18-3.58,0-5.35-.21-2.04.05-4.05.04-6.07,0-.96-.14-1.91-.15-2.87-.04-1.93-.03-3.85-.06-5.78-.05-3.48-.12-6.96-.17-10.45-.05-3.33-.03-6.66-.13-9.99-.06-1.83-.36-3.66-.44-5.49-.09-2.12-.22-4.23-.56-6.33-.08-.48-.14-.95-.21-1.43h-35.15c.06,1.39.23,2.78.16,4.17M106.04,414h-2.32c.14-.46.35-.9.38-1.36.02-.32-.14-.75-.38-.94-.18-.15-.82-.1-.87.02-.15.33-.15.76-.09,1.14.06.39.25.76.38,1.14h-1.74c-.14-.29-.23-.62-.43-.85-.14-.16-.44-.19-.67-.28-.05.24-.12.48-.15.73-.01.13.06.27.09.4h-.87c-.2-.71-.4-1.42-.59-2.11-.52.19-1,.37-1.23.45-.56.67-.96,1.16-1.37,1.66h-.29c-.71-.59-1.41-1.09-2.41-.57-.25.13-.63.03-.95.02-2.2-.1-4.39-.17-6.52.55h-15.11c-.15-.73.46-1.06.85-1.46-.93-1.43-1.35-2.82-.41-4.35.18-.29.1-.73.14-1.11-.32-.02-.54-.03-.73-.04,0-.72-.18-1.42.04-1.96.43-1.06.22-2.08.15-3.13-.08-1.2-.02-2.36.31-3.57.29-1.06.26-2.39-.13-3.4-.4-1.04-.32-1.94-.21-2.93.05-.41.1-.94-.11-1.22-.48-.65-.35-1.2-.13-1.88.17-.51.24-1.16.08-1.66-.54-1.59-.66-3.13-.27-4.8.24-1.03.32-2.29-.07-3.22-.66-1.58-.02-3.2-.52-4.74-.08-.25.06-.57.08-.86.1-1.39.28-2.78.28-4.17,0-1.53-.25-3.06-.2-4.59.02-.77.08-1.5-.17-2.24-.1-.29,0-.65.01-.99.04-1.15.12-2.29.12-3.43,0-.47-.26-.93-.27-1.4-.04-1.62-.15-3.26,0-4.87.12-1.27.09-2.51.03-3.78-.13-2.54-.05-5.1-.01-7.65,0-.45.29-.88.35-1.34.06-.54.05-1.1-.01-1.64-.07-.55-.32-1.09-.34-1.64-.07-2.11-.09-4.22-.1-6.33,0-.67-.09-1.39.14-1.98.38-.96.63-1.76-.21-2.64-.23-.23-.09-.84-.08-1.27,0-.33.12-.67.12-1-.04-1.88-.11-3.76-.14-5.64-.05-3.04-.02-6.08-.12-9.11-.1-2.93-.34-5.86-.5-8.8-.12-2.08-.24-4.15-.31-6.23-.07-1.88-.09-3.76-.13-5.65-.02-1,.09-2.05-.14-3-.27-1.08-.3-2.07.02-3.11.11-.35.13-.74.09-1.1-.13-1.32-.36-2.63-.43-3.96-.03-.52.25-1.06.39-1.63-.14-.28-.45-.64-.47-1.01-.09-1.73-.09-3.47-.14-5.21-.03-1.21-.12-2.41-.13-3.62-.01-1.18.06-2.37.05-3.56-.01-1.47-.11-2.94-.12-4.41,0-1.2.13-2.39.09-3.59-.05-1.48-.25-2.95-.32-4.43-.03-.57.18-1.15.21-1.73.02-.42-.12-.85-.11-1.28.03-.81.4-1.74.13-2.41-.4-.97.28-1.98-.37-2.84.12-1.71.34-3.41-.15-5.11-.07-.25.06-.55.1-.83.05-.37.14-.74.12-1.1-.13-2.33-.34-4.65-.4-6.98-.04-1.63-.31-3.28.24-4.89-.6-2.09.19-4.18.02-6.28-.06-.66,0-1.35.12-2,.35-1.79.73-3.58,1.15-5.36.51-2.16.6-4.25-.35-6.37-.46-1.02-.44-2.26-.6-3.41-.08-.57-.02-1.16-.09-1.74-.29-2.27-.28-4.51.25-6.76.24-1.02.41-2.14.24-3.15-.43-2.68-.42-5.36-.52-8.05,0-.1,0-.2-.05-.28-.04-.06-.13-.1-.2-.14-.12.17-.24.33-.57.79-.09-.97-.27-1.65-.17-2.29.14-.91.14-1.75,0-2.67-.24-1.53-.25-3.1-.33-4.66-.04-.81-.02-1.62-.03-2.43-.01-.8.15-1.65-.09-2.37-.18-.52-.32-.96-.25-1.49.13-1.09-.32-2.2.15-3.28.03-.08.04-.22,0-.28-.8-1.06-.26-2.24-.29-3.37-.03-.91.08-1.85-.09-2.74-.32-1.67.42-3.35-.14-4.99-.05-.14.08-.36.17-.54.28-.58.47-1.08-.07-1.71-.23-.28-.12-1.06.11-1.46.38-.66.41-1.25.18-1.93-.1-.32-.16-.66-.15-.99.07-2.25.16-4.5.25-6.61.16-.27.41-.5.42-.73.02-.57-.32-1.31-.07-1.69.73-1.11.44-2.35.63-3.5.29-1.75.23-3.6-.47-5.29-.55-1.31-.99-2.61-1-4.04,0-.28-.07-.66-.25-.82-.83-.69-.69-1.66-.79-2.55-.1-.86-.06-1.73-.09-2.6-.13-3.72-.28-7.43-.38-11.15-.05-2.07-.04-4.14-.03-6.21,0-1.21.04-2.41.07-3.62.07-3.04.17-6.07.2-9.11.02-1.87-.05-3.73-.09-5.6-.02-.72-.08-1.44-.1-2.16-.03-2.07-.1-4.15-.07-6.22.04-2.1.47-4.21-.11-6.3-.05-.17-.02-.39.03-.57.54-1.81.29-3.69.55-5.53.01-.09,0-.19-.01-.29-.09-1.15-.18-2.3-.29-3.44-.13-1.43-.03-2.88-.66-4.26-.28-.61-.19-1.4-.21-2.12-.03-1.1.1-2.21-.05-3.29-.72-5.13-1-10.29-1.26-15.45-.05-1.02-.15-2.04-.05-3.05.16-1.52-.39-3.1.37-4.59.09-.17-.03-.47-.11-.69-.6-1.78-.87-3.55.12-5.29.07-.11.07-.28.07-.42-.06-1.37-.13-2.73-.19-4.1-.01-.24-.05-.51.03-.72.54-1.44.49-2.93.4-4.43-.05-.84.3-1.3,1.13-1.59.58-.2,1-.07,1.51.12,1.62.61,3.21,1.4,5.03,1.14,1.22-.18,2.44-.38,3.64-.65.21-.05.5-.5.47-.74-.06-.56-.36-.93-1.05-.95-.87-.02-1.74-.2-2.62-.31,9.26-.5,18.94-.24,20.71.53-1.81.1-3.61.13-5.42.09-1.49-.03-2.99-.16-4.48-.2-.73-.02-1.03.51-.71,1.13.29.54.6,1.08.8,1.66.2.56.55.84,1.09.68.86-.24,1.68-.12,2.56-.05,1.34.12,2.72,0,4.07-.16,1.12-.13,1.49-1.16.86-2.11-.08-.12-.09-.29-.15-.52,1.53.22,1.12,1.79,1.95,2.44,1.16-.27,1.39-1.38,1.93-2.15,1.29.2.05,1.5,1.09,1.91.38-.5.79-1.05,1.18-1.58-.58-1.23-.58-1.24-1.7-1.04-.59.11-1.17.25-1.82-.42,1.86-.49,3.51-.11,5.49-.23-.8.98-1.02,1.77-.57,2.63.32-.02.56-.04.79-.06.11,1,.27,1.91.31,2.83.09,2.36.09,4.73.18,7.09.14,3.56.32,7.12.51,10.68.02.42.07.99.34,1.22.69.59.65,1.39.73,2.11.18,1.54.31,3.08.35,4.63.05,1.98-.02,3.96-.01,5.95.01,3.04.02,6.09.07,9.13.05,3.33.22,6.67.2,10-.02,2.94.57,5.88.03,8.82-.07.36.15.75.14,1.13-.02.7.14,1.62-.24,2.05-.43.51-.39.92-.38,1.42.05,3.19.15,6.38.16,9.58.01,3.43-.12,6.86-.06,10.29.09,5.26.31,10.52.44,15.78.09,3.63.12,7.26.19,10.88.05,2.66.14,5.32.17,7.98.01,1.1-.36,2.28-.09,3.29.52,1.88-.36,3.84.5,5.65.04.08,0,.19,0,.29.02.96.36,2.08-.01,2.85-.53,1.1.14,1.9.14,2.83,0,.65.08,1.26-.24,1.94-.24.51.05,1.28.15,1.93.07.47.25.92.28,1.38.05.91,0,1.82.03,2.73.08,1.83.26,3.67.29,5.5.04,2.42-.06,4.84-.03,7.26.1,7.35.23,14.69.37,22.04.05,2.46.16,4.92.21,7.38.01.57.01,1.18-.14,1.72-.62,2.19.11,4.42-.23,6.61-.03.22.14.46.17.7.18,1.49.58,2.99.46,4.46-.21,2.66-.19,5.3-.12,7.95.06,2.05.26,4.1.36,6.14.06,1.1.14,2.21.05,3.3-.09,1.16-.14,2.28.21,3.42.19.62.31,1.4.12,1.99-.35,1.07.46,2.18-.21,3.2-.06.09.18.34.19.52.08,1.67.18,3.35.18,5.02,0,.43-.34.85-.47,1.29-.07.25-.13.58-.03.79.43.88.36,1.77.18,2.69-.11.56-.32,1.2-.17,1.7.49,1.54.43,3.12.56,4.69.24,3.06-.56,6.15.26,9.19.05.18,0,.39,0,.58-.02,1.16-.32,2.41.02,3.45.54,1.62-.39,3.21.22,4.76.04.11-.17.31-.25.48-.13.29-.35.58-.36.87-.04,1.78-.05,3.57-.03,5.35,0,.43.22.87.18,1.29-.21,2.21-.28,4.4.32,6.56.05.18.04.38.04.58,0,2.84.02,5.67,0,8.51,0,.54-.21,1.09-.27,1.39.2.9.42,1.6.5,2.32.1.86.1,1.74.13,2.61.03,1.08.24,2.2,0,3.22-.21.91-.45,1.74-.12,2.65.05.16.04.39-.04.53-.44.7-.33,1.3.08,2.02.23.41.22.99.44,1.49.15.36-.1.9-.2,1.35-.06.26-.31.58-.23.76.4.85.35,1.67.15,2.55-.1.43.11.92.2,1.39.14.75.32,1.5.42,2.26.07.52-.02,1.07.08,1.59.32,1.65.15,3.26-.1,4.9-.18,1.17-.16,2.38-.16,3.57,0,.62.2,1.23.2,1.85-.02,1.74-.09,3.47-.15,5.2-.1,2.89-.21,5.77-.32,8.66-.03.77-.07,1.54-.11,2.31-.1,1.64-.03,3.31-.34,4.91-.36,1.85-.26,3.71.04,5.47.49,2.87.83,5.72.73,8.63-.05,1.54-.04,3.1.08,4.64.17,2.21.55,4.41.06,6.63-.05.22.04.47.06.71.13,1.56.3,3.12.37,4.69.05,1.15-.05,2.3-.05,3.45,0,1.21.14,2.42.03,3.62-.12,1.22.12,2.43.18,3.62.08,1.6-.05,3.2.12,4.8.27,2.5-.58,5-.01,7.5.05.21-.13.46-.14.69-.11,1.93-.74,3.86.09,5.78.06.15-.03.37-.05.63-.83.08-1.62.15-2.42.22-.06.13-.11.27-.17.4,2.38-.23,3.6.72,3.44,3.11-.28.18-.63.4-1,.64.07.72.15,1.39.22,2.06M68.78,63.09c.21.26.42.52.74.92.08-.85-.33-.9-.78-.89v-1.16c.53-.22,1.33-.17,1.19-1.22-.29-.02-.66-.17-.89-.04-1.18.63-2.36,1.28-3.48,2-.79.51-.74,1.26.15,1.67.84.39,1.77.59,2.76.9.12-.88.22-1.53.31-2.19M85.37,124.46c.89.38,1.41.8,1.54,1.72.13.88.54,1.64,1.71,1.54.78-.07,1.58.05,2.52.09-.2-1.89.51-3.13,2.33-3.55.99.54,0,2.25,1.67,2.55,0-.64,0-1.18,0-1.72,0-.67-.24-1.56.1-1.96.79-.95.68-1.96.65-3-.03-1.09-.05-2.19-.24-3.25-.15-.84-.99-1.11-1.7-1.41-.68-.29-.97.18-1.28.62-.31.43-.72.71-1.24.54-.93-.31-1.35.24-1.72.91-.28.5-.57.87-1.15,1.17-.95.48-1.93.77-2.93,1.04-.87.24-1.45.99-1.12,1.7.38.82.02,1.26-.46,1.77-.17.17-.34.34-.49.53-.36.48-.39,1.03,0,1.45.42.46.88.17,1.26-.17.18-.16.33-.34.53-.55M98.19,408.04c-.02-.1-.03-.2-.05-.31-1.22-.06-2.44-.12-3.73-.18.18-1.53.34-2.91.52-4.43-1.01-.09-1.92-.18-2.82-.26-.63,1.62-1.24,3.18-1.87,4.79h-2.26c-3.28,0-6.57-.01-9.85,0-.5,0-1.04-.04-1.46.66,2.32.68,4.38,1.78,6.71,2,.52.05,1.07.02,1.58-.09,1.73-.36,3.45-.37,5.17,0,1.07.23,2.16.25,3.09-.36,1.08-.71,2.25-1.09,3.48-1.36.51-.11.99-.31,1.49-.46M85.44,125.9c-.2.09-.39.25-.6.26-1.8.1-2.31.33-3.1,1.67-.3.5-.59.89-1.22.81-.75-.09-.96.98-1.74.8-.04.31-.2.65-.11.92.38,1.1,1.18,1.44,2.44,1.19.47-.84.78-1.77,1.39-2.38.68-.68,1.68-.44,2.5-.11q1.26-1.58.43-3.16M95.79,151.62q.65-1.29.05-2.98c-.41.99-1.08,1.86-.05,2.98M104.79,312.94c-.52,1.31-.49,1.55.12,2.57-.05-.99-.09-1.78-.12-2.57M70.51,62.5c-.02-.08-.03-.16-.05-.24-.23.02-.46.04-.7.07.04.12.09.34.11.33.21-.03.42-.1.64-.16M70.95,406.17c.07,0,.14-.02.21-.03-.03-.25-.07-.49-.1-.74-.07,0-.14.02-.21.03.03.25.07.49.1.74M258.57,0h1.45c.54.36,1.08.71,1.55,1.03.43-.27.7-.44.78-.49.79.3,1.49.84,1.95.68.69-.24,1.09,0,1.6.25.42.21.88.51,1.32.49,1.37-.05,2.73-.23,4.24-.38.02.17.18.51.08.77-.23.64.03,1.15.15,1.76.34,1.65.97,3.37-.15,5.04-.42.63-.67,1.57-.11,2.2.86.97.92,1.98.9,3.2-.04,3.28.13,6.56.19,9.85.01.67.1,1.43-.15,2.01-.55,1.29-.06,2.65-.43,3.95-.26.91-.28,1.92-.24,2.87.09,2.17.3,4.33.43,6.5.03.46-.06.93-.1,1.4-.09.01-.19.03-.28.04-.24-.93-.48-1.86-.72-2.78-.77,1.13-1.54,2.24-2.38,3.48-.18-.64-.48-1.19-.46-1.72.09-1.99-1.91-2.47-2.68-3.82-.05-.09-.26-.13-.4-.13-1.82,0-3.65,0-5.59,0-.08.64-.15,1.29.43,1.81.08.07.26.03.45.05-.14-.41-.25-.75-.37-1.1.67-.1,1.27-.19,1.92-.28.04.17.1.4.15.63.22,1.04.85,2.2.57,3.08-.42,1.35.77,1.81.94,2.75.02.13-.02.26-.04.4-.56-.88-1.74-1.36-1.41-2.73.2-.83-.73-1.17-1.2-1.67-.52-.56-.92.17-1.39.32-.81-1.3-.3-2.99-1.17-4.08-.83,0-1.54.18-2.09-.04-.87-.35-1.38,0-1.9.55-.29.3-.53.63-.9,1.07-.28-.69-.5-1.23-.73-1.8-1.29,1.15-1.34,2.46-1,3.9.14.59.17,1.21.23,1.82.13,1.2.81,1.88,1.85,1.84.08,0,.17.07.26.11.19.35.39.7.58,1.06.1,0,.2,0,.3,0-.17-.96,0-1.8.62-2.69.27.63.37,1.2.69,1.57.78.87.93,1.65-.02,2.42.64,1.39,1.14,2.76,1.9,3.97.43.69.44,1.2.14,1.88-.24-.08-.45-.14-.68-.22-.53.6-.31,1.26-.23,1.93.08.7.2,1.46.04,2.12-.37,1.49-.09,2.78.91,3.9.42.47.53.96.58,1.57.13,1.65.36,3.3,1.07,4.89.89-.21,1.76-.29,2.23-1.04.65-1.06,1.18-2.19,1.76-3.28.16.1.43.27.88.56-.08-.76-.14-1.29-.19-1.84-.67.18-1.27.34-1.94.51v-2.13c-.92.68-1.14.67-2.13-.14.57-.35.96-.84,1.8-.68.86.16,1.35-.54,1.05-1.35-.17-.45-.44-.86-.68-1.27-.67-1.12-1.29-2.25-1.12-3.79,1.7-.55,3.46-1.12,5.31-1.72,0,.92.03,1.8-.01,2.68-.02.4-.11.76.34.99.56.28.43.65.11,1.05-.2.25-.43.54-.49.84-.16.75-.24,1.52-.33,2.28-.11.93-.17,1.84.75,2.37-.79,2.23-.44,4.29.56,6.4-1.53.27-1.42,1.29-1.28,2.27.11.74.34,1.47.59,2.48.46-.36.8-.52.97-.79.21-.34.28-.76.41-1.12,1.36.23.41,1.73,1.4,2.17.35-.66-.03-1.62.99-1.89.19.36.39.73.6,1.1.29-.8.32-1.55.33-2.3.02-.69-.51-1.4.15-2.35.03.68.11,1.11.06,1.52-.13,1.05-.02,2.02.59,2.91.1.16.14.36.2.54.29.88.34,1.74.26,2.68-.11,1.29.23,2.6.21,3.9-.09,8.02-.22,16.03-.32,24.05-.04,3.37.02,6.74-.06,10.11-.09,3.91-.3,7.82-.41,11.74-.09,3.52-.11,7.05-.16,10.58-.02,1.64-.06,3.29-.04,4.93.03,3.09.09,6.19.17,9.28.06,2.45.13,4.91.23,7.36.16,3.77.36,7.53.54,11.3.05,1,.3,2.08.03,2.99-.53,1.76.11,3.45-.01,5.17-.11,1.55.01,3.12.05,4.69.02.67.08,1.33.13,2,.1,1.29.35,2.59-.15,3.46.15,1.02.31,1.7.34,2.38.04.91-.01,1.83-.02,2.75-.02,1.3-.04,2.59-.06,3.89,0,.42,0,.83,0,1.25,0,2.21-.06,4.42.06,6.63.06,1.08-.23,2.1-.04,3.23.29,1.73.03,3.56-.05,5.35-.01.29-.29.57-.45.85-.22.4-.44.93.02,1.16.73.38.53.91.51,1.48-.03.77.03,1.54-.01,2.31-.06,1.16-.17,2.32-.28,3.72.41.32.41,1,.22,1.75-.07.27-.03.57-.04.86-.03,1.37-.06,2.74-.07,4.1-.01,1.43.04,2.87-.02,4.3-.06,1.37.16,2.72-.24,4.11-.26.9-.69,1.83-.33,2.93.31.95.18,2.07.17,3.11-.04,2.99-.17,5.98-.16,8.96.01,2.5.17,5.01.29,7.51.04.87.16,1.72-.34,2.53-.14.22-.2.68-.07.83.6.7.2,1.46.26,2.19.08,1.01.08,2.04.3,3.01.16.73.18,1.4.08,2.13-.27,2.04-.45,4.07-.09,6.14.38,2.17.68,4.36.84,6.56.16,2.31.11,4.63.15,6.94.02,1,.09,2.01.07,3.01-.06,2.44-.14,4.87.06,7.32.19,2.38.07,4.8,0,7.19-.12,3.81-.4,7.62-.47,11.43-.07,3.96.03,7.92.05,11.89,0,1.44-.16,2.9,0,4.32.21,1.77.26,3.52.22,5.31-.03,1.55-.03,3.13.06,4.69.05.87.71,1.73-.05,2.6-.06.07,0,.29.05.42,1.07,2.23.18,4.62.53,6.93.29,1.9-.19,3.91-.27,5.88-.02.49.17,1,.27,1.5.08.4.25.81.25,1.21,0,1.25-.13,2.5-.06,3.74.06,1.04.25,2.03-.97,2.56-.06.02-.06.17-.08.26-.12.12-.24.25-.36.37.46.26,1.27.45,1.33.78.18,1.06.06,2.18.1,3.27.04,1.21.13,2.42-.24,3.61-.05.14.14.35.18.54.05.23.13.48.1.71-.21,1.92-.06,3.84-.07,5.75-.02,2.94-.13,5.89-.16,8.83-.05,5.45-.06,10.89-.11,16.34,0,.81,0,1.65-.62,2.33-.32.35-.21.72.12,1.02.21.19.44.35.5.39-.1.91-.19,1.66-.27,2.4h-34.28c-.11-.84-.42-1.63-.08-2.54.17-.47-.23-1.16-.35-1.68-.53.03-.9.06-1.59.1.5-.23.68-.31.86-.39q1.46-.67,1.15-2.25c-.06-.28-.07-.58-.07-.87.02-1.87.03-3.75.07-5.62.06-2.71.22-5.41.21-8.11,0-3.14-.18-6.27-.22-9.41-.03-2.46.05-4.92.06-7.38.01-2.94-.5-5.88-.08-8.83.03-.23-.09-.47-.1-.71-.1-1.88-.24-3.76-.28-5.64-.02-1.34.14-2.68.13-4.02-.01-1.74-.1-3.48.36-5.19.11-.42.12-.86.18-1.29.66-4.47.07-8.97.33-13.45.01-.24-.09-.48-.09-.72-.02-1.1-.17-2.23,0-3.31.69-4.65.5-9.28-.34-13.86-.31-1.69-.37-3.34-.41-5.04-.06-3.28-.03-6.58-.41-9.83-.22-1.84-.16-3.65-.25-5.47-.1-1.97.32-3.94-.03-5.91-.15-.85-.19-1.73-.22-2.6-.05-2.01-.05-4.02-.1-6.03-.06-2.84-.14-5.69-.21-8.53,0-.29-.02-.58-.03-.87-.15-2.41-.37-4.81-.45-7.22-.12-3.56-.12-7.13-.22-10.69-.06-2.22-.31-4.44-.32-6.66,0-2.98.18-5.96.21-8.95.03-3.18-.04-6.37-.04-9.55,0-1.29.41-2.55.08-3.9-.21-.85.13-1.82.13-2.73,0-1.06-.14-2.12-.12-3.17.04-3.76.12-7.51.16-11.27.02-1.44-.05-2.88-.07-4.32-.02-2.02-.02-4.05-.05-6.07-.01-.91-.1-1.83-.11-2.74-.01-1.21.04-2.42.02-3.63-.03-1.4-.17-2.79-.18-4.19-.01-1.78.13-3.55,0-5.34-.22-2.89-.12-5.8-.15-8.7-.02-1.92.01-3.85-.07-5.76-.08-1.83-.33-3.65-.43-5.48-.08-1.49-.04-2.99-.09-4.49-.02-.77-.16-1.54-.17-2.31-.03-1.63.03-3.27-.02-4.9-.1-3.31-.27-6.62-.36-9.93-.05-1.88-.01-3.77,0-5.66,0-.29-.09-.63.03-.86.63-1.27.23-2.56.12-3.85-.04-.48-.04-.96-.02-1.44.05-1.2.4-2.47.12-3.59-.35-1.4-.15-2.75-.2-4.12-.12-3.46-.06-6.93-.1-10.4-.04-3.82-.14-7.63-.16-11.45-.01-1.88-.19-3.84.24-5.63.47-1.98-.39-3.83-.02-5.73.02-.09.02-.19.02-.29.04-1.11.11-2.21.11-3.32,0-1.64-.07-3.27-.07-4.9,0-1.15.17-2.32.09-3.46-.08-1.11.15-2.2,0-3.34-.21-1.58.2-3.22.14-4.84-.04-1.29.16-2.59.14-3.89-.03-1.44-.3-2.88.23-4.3.09-.25,0-.57-.02-.85-.08-.96-.25-1.92-.24-2.88.01-3.81.08-7.63.12-11.44.02-1.49.03-2.99,0-4.48-.05-2.36-.15-4.71-.18-7.07-.01-.81.21-1.63.2-2.45-.02-1.86-.14-3.72-.18-5.58-.03-1.3.07-2.61.03-3.91-.07-2.17-.29-4.33-.29-6.49,0-3.27.1-6.54.19-9.81.06-2.17.18-4.34.28-6.51h.29c.77.77,1.72.8,2.73.69.65-.08,1.44-.31,1.95-.05.93.49,1.19.1,1.43-.64h1.45c.37.71,1.06.76,1.73.85.63.08.86-.29.89-.85h.29c.12.14.22.38.37.41.74.18,1.49.42,2.24.43.77.01,1.55-.2,2.46-.34.2.17.52.45.87.75.45-.18.88-.36,1.4-.57-.15-.28-.26-.48-.36-.68h2.03q1.03.74,1.74,0M262.96,379.52c.69,1.13.67,1.13.54,2.59-.03.33.09.66.1,1,.03.71.09,1.43.05,2.15-.03.48-.22.97.38,1.24.59.27.98-.02,1.39-.42,1.38-1.35,1.45-2.98.96-4.76-.12.39-.25.79-.37,1.19-.29-.34-.4-.69-.46-1.04-.21-1.32-.37-2.64-.6-3.96-.13-.72-.76-.91-1.24-.37-.23.27-.35.66-.46,1.01-.13.43-.19.89-.29,1.38M269.52,373.11c-.32,1.73-.63,3.4-.97,5.22.53.17,1.08.36,1.84.6.16-1.62.33-3.08.46-4.54.07-.81-.3-1.27-1.34-1.28M267.91,71.61c-.19.91-.38,1.82-.59,2.85.44.26.91.53,1.5.88.11-1.26.2-2.29.28-3.33-.4-.14-.8-.27-1.19-.4M266.4,53.47h-2.58v1.55c.66-.14,1.24-.27,1.84-.4.1.36.19.73.36,1.36.15-1.04.26-1.78.37-2.5M270.48,8.55c-.5,1.08-.31,1.86-.07,2.8.48-1.21.49-1.39.07-2.8M264.03,52.55c.38-.7.02-1.15-.46-1.7-.56.84.13,1.23.46,1.7M266.25,64.22c.14-.02.28-.05.43-.07-.2-.81-.4-1.61-.6-2.42-.08.02-.16.04-.24.05.14.81.28,1.63.42,2.44M256.14,54.9c.12-.03.23-.07.35-.1-.08-.4-.17-.8-.3-1.42-.7.76-.47,1.15-.05,1.52M270.33,71.74c-.13,0-.26.02-.4.02.1.49.2.97.3,1.46.1-.02.19-.04.29-.05-.06-.48-.13-.95-.19-1.43M264.65,52.53c.09.04.18.09.27.13.21-.35.42-.69.63-1.04-.12-.06-.24-.12-.35-.19-.18.36-.36.73-.55,1.09M269.55,38.86c-.09-.07-.18-.15-.28-.22-.04.08-.14.18-.12.23.05.11.16.18.24.27.04-.08.08-.15.15-.28M255.68,52.6c.08-.02.15-.04.23-.07-.05-.19-.1-.38-.17-.56,0,0-.15.04-.23.06.06.19.11.38.17.57M257.16,49.77c.11-.04.26-.08.25-.1-.01-.12-.06-.24-.09-.36-.1.04-.2.08-.3.12.05.11.09.22.14.33M293.43,401.22v4.65c-.28-.04-.6,0-.85-.12-1.36-.59-2.69-1.32-4.26-.85-.08.02-.2,0-.28-.05-.94-.56-1.83,0-2.84.05.48.39,1.06.62,1.17,1,.22.71.7.84,1.27.97.51.12,1.02.22,1.52.33.98,1.59.72,3.29.39,4.89-.14.65-.31,1.25-.19,1.91h-.87c-.24-.27-.48-.54-.81-.93-.16.41-.25.67-.35.93h-.58c-.02-.33-.05-.66-.07-.99-.03,0-.05,0-.08,0-.05.33-.09.65-.14.98h-6.39c.46-1.25-.64-2.63.36-3.79-.18-.44-.47-.83-.49-1.23-.04-.85.08-1.71.09-2.57.02-1.35,0-2.7,0-4.04-.03-3.19-.13-6.38-.1-9.56.03-3.52.19-7.04.25-10.57.03-1.73-.05-3.47-.05-5.2,0-1.92.05-3.85.07-5.78.02-2.16.05-4.33.04-6.49-.01-1.78-.07-3.56-.11-5.34-.08-3.38-.17-6.76-.24-10.14-.06-2.61-.08-5.22-.17-7.83-.13-3.71-.31-7.43-.44-11.14-.07-1.84-.03-3.68-.1-5.51-.12-3.18-.52-6.37-.38-9.54.21-4.67.05-9.36.68-14.01.04-.29.02-.58.02-.87-.03-1.97-.06-3.94-.1-5.91,0-.48-.02-.96-.05-1.45-.1-1.49-.31-2.99-.31-4.48,0-4.1.23-8.19-.06-12.3-.15-2.25.14-4.54.22-6.81.06-1.78.3-3.57-.53-5.27-.16-.34-.3-.79-.21-1.12.41-1.46-.04-2.87-.07-4.31-.07-3.41.06-6.83-.33-10.23.53-1.83.3-3.71.34-5.57.02-.67.13-1.34.11-2.02-.04-1.54-.21-3.09-.19-4.63.04-3.53.16-7.05.23-10.57.05-2.69,0-5.39.15-8.08.15-2.75.28-5.47-.04-8.22-.19-1.62-.08-3.28-.1-4.91-.03-2.36-.09-4.72-.08-7.08.03-3.38.15-6.75.16-10.12,0-1.68-.15-3.36-.2-5.05-.02-.62.11-1.25.11-1.88-.02-3.53-.05-7.05-.08-10.58,0-.39.01-.77,0-1.16-.05-1.98-.1-3.95-.15-5.93-.06-2.54.38-5.1-.22-7.63-.07-.27.01-.57.02-.86.06-1.4.1-2.8.17-4.2.03-.62.15-1.24.2-1.86.04-.51.13-1.04.04-1.52-.57-3.05-.68-6.14-.72-9.23-.03-2.32,0-4.64-.04-6.96-.01-.81-.18-1.62-.16-2.42.03-1.64.19-3.28.2-4.92.01-2.99-.1-5.99-.07-8.98.05-5.17.16-10.34.26-15.51.02-1.01.18-2.01.18-3.02,0-2.46-.08-4.92-.09-7.38,0-1.21.07-2.41.1-3.62.04-1.79.09-3.57.1-5.36,0-1.2-.19-2.41-.04-3.59.13-1.01.02-1.99.02-2.98-.01-1.35.04-2.7.06-4.06.04-2.46.1-4.93.1-7.39,0-.79.36-1.16,1.04-1.33.32-.08.67-.08,1-.1.78-.04,1.5-.14,2.13-.73.25-.24.79-.3,1.17-.24,1.2.19,1.33.14,1.55-.98.05-.28.08-.57.12-.84.16-.1.28-.18.41-.24,1.06-.51,1.25-1.09.54-1.99-.41-.52-.93-.97-1.42-1.43-.39-.36-.85-.64-1.21-1.02-1.04-1.1-1.03-1.27-.21-2.54-.13-.43-.48-.98-.33-1.23.64-1.11-.14-1.44-.85-1.88-.28-.17-.53-.4-.77-.58.34-2.21-.22-3.18-2.29-4.05-.17-.07-.34-.18-.46-.31-.34-.36-.65-.73-.97-1.1-.05-3.81.19-7.66.41-11.52.04-.62.03-1.26-.05-1.88-.18-1.53-.48-3.06-.6-4.59-.1-1.29-.05-2.6-.02-3.9.06-2.55.16-5.09.23-7.53.54-.37,1.02-.62,1.39-.98.72-.71.7-1.27-.08-1.94-.49-.42-1.09-.72-1.54-1.01v-3.22c.35-.29,1.34.07,1.22-.95-.44-.16-.88-.32-1.33-.49-.13-.92-.25-1.77-.37-2.63h1.16c.04.25.08.5.15.98.34-.46.53-.72.73-.98h14.24v400.35c-.73.16-1.12-1.09-2.11-.4.76.46,1.43.86,2.11,1.27M280.53,9.5c.68-.06,1.23-.11,1.93-.17-.12-.57-.2-.95-.28-1.34-.12-.07-.24-.15-.37-.22-.04.95-1.47.27-1.28,1.72M291.72,404.46c-.83-.62-1.53-.84-2.39-.47.74.09,1.23,1.07,2.39.47M280.4,63.72c-.44.21-.78.43-.54.95.04.1.37.19.49.12.5-.27.41-.63.06-1.07M278.58,6.4c.1-.09.21-.18.31-.26-.2-.2-.4-.41-.6-.61-.07.07-.14.13-.21.2.17.23.34.45.51.68M284.11,62.54c.12,0,.25-.02.37-.03-.03-.24-.05-.47-.1-.7,0-.03-.23,0-.36,0,.03.24.06.48.09.73M286.35,58.09c.17-.2.27-.33.38-.45-.09-.07-.19-.2-.26-.19-.11.02-.24.13-.29.24-.03.07.08.2.17.41M289.48,399.81c-.24-.21-.37-.4-.49-.41-.14,0-.27.18-.41.27.1.12.19.32.32.36.12.03.29-.1.58-.22M283.1,61.6c.09-.17.17-.26.19-.37,0-.04-.14-.16-.17-.15-.11.04-.19.13-.28.2.07.09.14.17.26.32M0,194.36v-4.65c.69.03.9-.27.79-.96-.2-1.32-.17-1.33,1.1-1.78-.13.26-.42.6-.34.77.46.98.06,1.84-.34,2.67.82.81,1.61.9,2.47.26v-1.51c-.4-.18-.77-.34-1.15-.51.26-.89.97-.13,1.44-.56v-1.06c-.52.08-.94.19-1.36.19-.25,0-.49-.16-.74-.25-.21-.81-1.21-1.48-.12-2.6-.77-.09-1.26-.15-1.75-.21v-.87c.66-.46.66-.5,0-.87v-9.01q.56-.13.66-.65c-.26.14-.46.25-.66.36v-4.07c.29.04.58.08.87.13.01-.06.02-.13.04-.19-.3-.07-.61-.15-.91-.23v-7.55c.29-.03.57-.07.86-.1,0-.09.01-.18.02-.27-.29-.07-.58-.14-.88-.21v-3.2c.69.57.88,1.7,2.08,1.82-.16-.96-.31-1.83-.46-2.68-.17.37-.34.72-.56,1.21-.48-.77-.11-1.78-1.06-2.09v-2.32c.64.16.64.73.86,1.2.2.42.69.71,1.1,1,.07.05.35-.19.58-.32-.27-.35-.61-.59-.65-.87-.16-1.18-.97-1.3-1.9-1.3v-2.9c.34.11.68.21,1.29.41-.24-.43-.32-.76-.47-.8-.25-.06-.55.05-.82.1v-2.32q.73-.42,0-1.16V0h9.59c-.31,1.71-.38,3.42-.2,5.17.15,1.48.07,2.98.07,4.48,0,.24-.1.47-.14.71-.33,2.11-.39,4.21-.11,6.33.18,1.39.44,2.84.19,4.18-.24,1.28-.07,2.48-.05,3.72.02.96.22,1.92.18,2.87-.05,1.2-.27,2.39-.39,3.59-.03.33-.06.82.13.98.67.56.4,1.21.36,1.88-.03.53.09,1.06.06,1.59-.03.45-.17.9-.26,1.35-.05.23-.15.46-.14.68.09,1.34.16,2.68.33,4.01.21,1.71.21,3.43.5,5.13.29,1.69-.11,3.45.29,5.16.07.31.05.72-.1.98-.45.78-.25,1.52.09,2.21.38.78.32,1.53.09,2.32-.09-.49-.17-.99-.26-1.48-.12,0-.24.01-.36.02-.11.7-.22,1.39-.33,2.09l.07-.08c-.83.77-1.19,1.62-1.05,2.83.2,1.77.14,3.57.16,5.35.02,1.79,0,3.58,0,5.36,0,1.51.28,2.92.96,4.32.45.92.42,2.09.51,3.15.06.76-.09,1.54-.05,2.3.06,1.44.47,2.94.21,4.31-.29,1.54.23,2.93.25,4.39.01,1.19-.33,2.4.27,3.54.01.02-.05.08-.07.12-.21.8-.47,1.6-.6,2.41-.04.27.21.59.36.88.08.15.2.28.31.41-.8.57,0,1.23-.03,1.84-.08,1.82.16,3.66.25,5.49.02.33,0,.69-.11.99-.23.67-.28,1.27.06,1.95.23.45.24,1.03.27,1.55.17,2.64.36,5.29.46,7.93.09,2.6.07,5.21.1,7.82,0,.1-.01.19-.03.29-.39,2.26-.41,4.51.24,6.73.06.22,0,.48-.02.72-.16,2.83-.33,5.66-.48,8.49-.02.43.04.87.15,1.29.36,1.39.28,2.77.06,4.16-.05.33-.1.67-.09,1.01.04,1.87.13,3.74.13,5.6,0,1.64-.2,3.28-.13,4.91.11,2.36.39,4.71.6,7.07.12,1.29.26,2.58.34,3.88.05.77.01,1.54,0,2.31-.02.89-.07,1.79-.11,3,1.04,1.73.32,4.03.68,6.19-.53,1.17-.07,2.37-.12,3.55-.02.52.09,1.12-.14,1.53-.37.65-.39,1.32-.25,1.94.27,1.22,0,2.39-.1,3.59-.14,1.61-.29,3.26.73,4.71.11.15.19.36.18.54-.1,1.19-.23,2.37-.35,3.55h-1.41c0,.48.06.87-.01,1.24-.27,1.51.24,2.84.88,4.15.16.32.22.71.24,1.08.09,2.01.28,4.02-.09,6.02-.03.14,0,.29,0,.43.1,1.62.22,3.25.31,4.88.03.53-.05,1.06-.04,1.6.01.96.08,1.91.08,2.87,0,.65-.08,1.3-.12,1.95-.02.28-.04.57-.03.85.1,2.79.36,5.6.24,8.38-.07,1.5.01,2.97.06,4.45.03,1-.19,2.02-.3,3.03-.04.33-.19.72-.07.98.45.97.43,1.89.22,2.93-.26,1.28.27,2.58.11,3.9-.07.6.14,1.24.18,1.86.12,2.11.07,4.22.09,6.33.02,1.91.29,3.81-.08,5.72-.04.21.09.45.11.67.08.91.14,1.82.2,2.73.02.38-.03.77.02,1.15.12.9.39,1.8.38,2.69-.02,2.41.23,4.8.54,7.18.14,1.12-.05,2.29-.08,3.44,0,.33.06.66.05.99-.03,1.49.7,2.87.46,4.41-.15.98-.04,2.01-.04,3.01,0,.97.16,1.97-.03,2.9-.45,2.13-.6,4.28-.49,6.44.14,2.64.27,5.27-.02,7.9-.06.57.04,1.15.01,1.72-.06,1.34-.18,2.67-.23,4.01-.04,1.11-.28,2.29.01,3.32.45,1.55.34,3.04.21,4.58-.14,1.63-.76,3.26-.06,4.92.12.29.08.67.05,1-.17,1.95-.36,3.9-.53,5.85-.03.34-.01.68.02,1.01.18,2.01.38,4.03.56,6.04.02.23-.09.47-.12.7-.09.71-.25,1.43-.22,2.14.05,1.03.28,2.05.36,3.08.08,1.05.09,2.1.1,3.15.01,1.83-.45,3.67.2,5.47.06.17.11.44.02.57-.71.98-.15,2.07-.27,3.1-.09.75.03,1.53.08,2.29.15,2,.31,4,.46,6,0,.09-.07.18-.07.28-.06.91-.24,1.82-.14,2.71.17,1.62.53,3.2.57,4.85.06,2.68.25,5.37.39,8.05,0,.14-.06.29-.06.43,0,.62,0,1.24,0,1.86.01.67-.03,1.36.07,2.02.24,1.59-.49,3.26.39,4.81.13.22.05.57.05.86-.04,2.27-.08,4.54-.14,6.8-.04,1.63.36,3.27-.2,4.89-.15.43-.09.98.03,1.44.33,1.26.2,2.49-.04,3.73-.05.27-.16.74-.04.81.61.39.33.95.36,1.44.08,1.33.13,2.66.2,3.99H0v-5.81c1.59-.23,3.18-.47,4.77-.71.06-.58-.04-.98-.66-.86-.77.15-.28-.71-.7-.82-.28.08-.54.16-.86.25-.13-.34-.24-.63-.36-.97-.79.05-1.38.83-2.19.49v-5.23c.35.35.7.69,1.3,1.28v-3.02H0v-6.68c.4-.06.73-.13.7-.68-.04-.78-.01-1.56-.01-2.43-.25.18-.47.34-.69.5v-43c.42.04.84.07,1.3.11.05-.55.1-1.05.16-1.69-.49-.15-.97-.31-1.46-.46v-4.36c.35-.19.7-.37,1.06-.56-.28-.68-.67-.51-1.06-.31v-1.16h1.04c-.46-.51-.75-.84-1.04-1.16v-72.34c.32-.09.67-.11.93-.28.19-.12.42-.48.36-.65-.08-.25-.36-.49-.62-.61-.17-.08-.45.06-.68.1v-3.49l.82.05c0-.06.02-.13.02-.19-.28-.15-.56-.29-.84-.44v-.29c1.44-.18,1.5-.26,1.23-1.66-.41.07-.82.14-1.23.2v-16.27c.39-.39.84-.77,0-1.16v-24.98c.57.01.73-.4.76-.83.04-.51-.36-.6-.76-.62v-4.07c.23-.19.47-.37.7-.56-.23-.1-.47-.21-.7-.31v-1.45c.39-.22,1.13-.12,1.04-.75-.05-.35-.58-.64-.91-.96-.03-.03-.09-.02-.14-.03v-.58c.41-.2.85-.34,1.21-.6.52-.38.97-.63,1.47.01.09.11.31.12.44.17.77-.8.83-1.67.63-2.6-.4-.11-.8-.23-1.12-.32-.28.24-.48.57-.7.58-.64.02-1.28-.09-1.93-.14v-1.74c.6-.16,1.21-.33,1.83-.49,1.4.82,1.51.82,2.22-.15-1.1-.71-1.92-1.82-3.09-2.16-.35.39-.66.72-.96,1.06v-2.61c1.02-.05.96-.77,1.05-1.65-.46.21-.76.35-1.05.49M3.19,49.05c-.1.27-.27.52-.26.77.06,1.54.14,3.08.28,4.61.04.41.3.79.46,1.19.21.52.52,1.03.6,1.57.13.96.56,1.73,1.19,2.41.41.45,1.1.46,1.32-.06.38-.94,1.05-1.82.48-3.01-.29-.6-.3-1.44-.14-2.1.25-1.07.44-2.18,1-3.18.3-.54.41-1.21-.03-1.78-.95-1.24-1.06-2.77-1.19-4.19-.08-.86-.36-1.52-.67-2.31-.93.87.23,2.05-.4,2.88-.97-1.35.22-2.99-.79-4.41-.57.3-1.05.56-1.65.87.85.98.86,1.99.65,3.07-.17.88-.06,1.69.48,2.48.31.45.52,1.06.55,1.61.08,1.29.03,2.59.03,3.95-.18-.7-.27-1.38-.53-1.97-.37-.81-.88-1.55-1.38-2.39M2.56,194.4c-.08.12-.1.18-.14.19-.45.13-.85.33-.64.89.06.17.33.37.51.38.47.02.94-.19.86-.72-.12-.78.58-.93,1-1.38-.38-.63-.73-1.21-1.11-1.83-.6.8-1.07,1.42-1.64,2.18.52.14.78.2,1.16.3M4.12,185.4c-.21-.81.1-1.46-.55-1.91q-.69,1.09.55,1.91M1.5,160.42c-.05.66.23.84.68.76.63-.11,1-.45.87-1.24-.55.17-1.03.32-1.56.48M2.4,176.99c-.33-.18-.52-.38-.69-.36-.16.02-.29.26-.43.41.16.12.32.34.49.35.16,0,.33-.2.63-.4M2.17,174.32c-.35-.1-.54-.21-.66-.17-.12.05-.17.27-.26.41.12.05.25.15.35.13.15-.04.27-.17.56-.37M3.71,182.15c-.08-.08-.16-.16-.25-.24-.13.15-.27.29-.38.46-.01.02.17.16.26.24.12-.15.25-.31.37-.46M3.39,196.95c-.12,0-.23.01-.35.02-.01.27-.02.53-.03.8.17,0,.34,0,.51,0-.04-.27-.08-.54-.12-.82M3.6,205.47c-.03-.1-.06-.2-.08-.29-.32.1-.64.19-.95.29.03.09.05.18.08.27.32-.09.64-.18.96-.26M2.17,168.8c-.18-.16-.31-.26-.43-.37-.07.11-.19.22-.18.32.01.11.13.25.24.3.05.03.19-.12.38-.25M1.79,181.8c.07-.01.15-.03.22-.04-.04-.23-.08-.46-.11-.69-.08.02-.16.03-.24.05.04.23.08.45.12.68M293.43,414v-4.65c-.79-.14-1.57-.27-2.37-.41-.86,1.4.05,2.78-.22,4.08q.82.29.85.98h1.74ZM47.94,0c.1.49.2.99.32,1.62.74-.12,1.39-.24,2.13-.36-.18-.55-.3-.9-.41-1.26h-2.03ZM264.09,0c.78.58,1.66.68,2.59.55.45-.06,1.01.08,1.19-.55h-3.78ZM268.74,0c.54,1.07.79,1.07,1.74,0h-1.74ZM195.23,414c.04-.48-.27-.73-.66-.66-.2.04-.34.43-.51.66h1.16ZM271.06,0c.12.24.23.47.35.71.17-.24.35-.47.52-.71h-.87ZM129.28,0c.1.17.2.35.29.52.1-.17.19-.35.29-.52h-.58ZM233.29,414c-.4-.69-.41-.69-.87,0h.87ZM56.24,389.23c.04.23.08.46.12.69.07-.04.14-.07.21-.11-.13-.16-.26-.32-.39-.49,0,0,.06-.09.06-.09M65.08,1.17c-.93-.14-1.8-.27-3.01-.44.34.5.43.82.58.84,1.63.29,3.26.64,5.17.61-.82-.58-1.43-1.01-2.19-1.54-.23.22-.43.41-.56.53M113.52,110.28c-.2-.73-.39-1.16-.43-1.61-.05-.49.04-.99.07-1.49-.44,2.05-.42,2.17.36,3.1M113.59,138.45v2.77c.8-1.05.23-1.9,0-2.77M109.78,55.03c.33.27.55.46.91.75.08-.49.12-.79.22-1.46-.55.34-.79.5-1.13.71M106.33,412.29q.91.76,1.49-.12c-.61.05-.99.08-1.49.12M114.22,157.16c.02.26.04.52.06.79.03,0,.06,0,.08,0,.02-.26.03-.53.05-.8-.06,0-.13.01-.19.01M107.95,410.92c.02-.06-.09-.23-.11-.22-.12.03-.29.07-.32.16-.03.08.08.22.16.42.14-.16.24-.25.28-.36M54.34,169.37l.07.83s.09,0,.14-.01v-.82c-.07,0-.14,0-.21,0M116.51,270.8c0-.6,0-1.21,0-1.81-.3.6-.38,1.21,0,1.81M113.64,142.84c-.02.17-.06.35-.05.52,0,.13.08.25.12.37.05-.02.1-.04.16-.06-.03-.28-.05-.55-.08-.83-.05,0-.1,0-.15,0M9.63,57.89c-.29.39-.37.83.07,1.11.4.26.87.27,1.32-.24-.36-.25-.65-.47-.96-.65-.14-.08-.33-.1-.5-.14l.07-.08M229.39,314.57v-.7c-.05.24-.09.48-.14.71.05,0,.09-.01.14-.02M227.56,98.38v.82c.08,0,.15,0,.23,0l-.05-.83c-.06,0-.12,0-.18,0M273.4,66.42c-.05-.88-.11-1.75-.15-2.62-.07-1.49-.11-2.98-.18-4.46-.02-.54-.04-1.12-.91-.86.3,2.67.6,5.32.89,7.97.12,0,.23-.02.35-.02M271.91,44.53c-.44-.98-.86-1.97-1.35-2.92-.08-.14-.55-.07-1.05-.12.4,1.09.72,1.96,1.07,2.89.17-.25.3-.43.51-.71.21.44.35.72.48,1,.11-.04.23-.09.34-.13M266.09,40.41c.09,1.13.17,2.26.26,3.4.86-1.2-.35-2.27.14-3.44-.13.01-.26.03-.4.05M273.29,53.59c-1.02,1.16-1.04,1.6-.18,2.54.06-.83.11-1.61.18-2.54M272.32,49.79c-.74.83-.33,1.64,0,2.42v-2.42ZM260.56,48.95c-.29.61-.58,1.24-.82,1.77.99-.42,1.31-1.06.82-1.77M262.2,48.12q.08-.8-.91-1.71c.27.82.2,1.46.91,1.71M272.64,48.36c0-.15-.16-.31-.25-.46-.14.14-.35.25-.41.42-.04.1.14.28.29.56.19-.25.37-.39.37-.52M258.38,37.22c-.1.06-.3.13-.3.17.02.15.11.29.18.44.1-.07.2-.14.32-.23-.08-.15-.14-.27-.21-.38M253.79,40.91s-.12-.09-.18-.13c-.05.11-.11.22-.13.34,0,.03.12.09.22.16.04-.13.09-.25.09-.36M258.79,41.49s.04.08.07.12c.05-.05.14-.11.13-.14-.02-.07-.09-.14-.14-.2-.02.07-.06.15-.06.23M256.58,41.03c-.07.09-.16.17-.2.27-.01.03.12.11.19.17.05-.07.1-.13.15-.2-.05-.08-.09-.16-.14-.24M283.09,56.51c.18-.01.35-.03.53-.04-.15-.08-.31-.15-.46-.23-.02.09-.04.18-.07.27M15.32,63.35c-1.26.73-1.27.92,0,2.32v-2.32ZM15.11,61.41c-.06.31-.12.62-.17.94.11.02.22.04.33.05.04-.32.09-.63.13-.94-.1-.02-.19-.03-.29-.05M17.29,252.83v1.63s.07,0,.1,0c-.03-.54-.07-1.09-.1-1.63,0,0,0,0,0,0M18.93,302.45s.09-.08.08-.1c-.02-.08-.06-.15-.1-.22-.06.05-.11.11-.17.16.07.06.13.11.19.16M157.08,364.42v-2.24s-.04,0-.07,0v2.28s.05-.03.07-.04M190.56,237.26c-.03.56-.07,1.12-.1,1.68-.03.61,0,1.23-.09,1.83-.07.54-.16,1.05.34,1.51v-5.09l-.15.07ZM95.1,119.12c-.6,1.13-1.65,2-.92,3.39.38-1.08,1.74-1.89.92-3.39"/>
  <path class="cls-3" d="M329.08,165.69c37.6,24.97,67.2,57.49,96.99,89.15-3,5.18-5.84,9.72-8.25,14.49-.76,1.49-1.1,4.06-.32,5.32,3.69,5.94,4.22,13.44,9.71,18.58,1.64,1.54,2.08,4.93,2.14,7.49.32,14.99-1.16,29.4-10.97,41.98-5.87,7.53-4.08,17.23,3.04,24.32,3.74,3.72,4.23,8,1.48,12.39-1.16,1.85-2.08,3.88-3.41,5.59-1.16,1.48-2.75,2.62-4.16,3.92.65,1.27,1.16,2.27,1.91,3.72-2.02.42-3.83.79-6.03,1.24-.71,2.03.65,5.38-4.17,5.67-3.48.21-5.56,6.04-4.92,10.01.18,1.13.5,2.24.69,3.05-2.55,2.58-4.4.99-6.27-.08-13.32-7.61-26.64-15.24-39.97-22.84-4.65-2.66-9.21-5.53-14.04-7.81-3.72-1.75-5.34-4.3-6.14-8.25-6.16-30.39-10.38-60.94-10.06-92.06.28-27.27-.16-54.55.04-81.82.07-9.72,1.03-19.44,1.66-29.15.09-1.36.57-2.7,1.06-4.9"/>
  <path class="cls-5" d="M711.56,204.02c-2.84-3.9-6.16-7.46-9.38-11.07-26.56-29.81-53.2-59.55-79.7-89.41-8.97-10.1-12.87-10.24-21.34.2-7.54,9.29-14.94,18.71-22.46,28.15-3.68-1.73-5.99-2.48-7.94-3.77-18.13-11.98-17.38-11.54-28.6,5.88-12.42,19.28-25.82,37.98-39.77,56.19-13.63,17.79-28.65,34.55-36.23,56.14-2.49,7.1-8.08,15.69,1.55,20.93,8.67,4.72,12.74-4.11,17.21-9.35,46.21-54.22,105.29-67.16,172.39-53.5,26.63,5.42,29.72,12.21,19.16,37.33-1.17,2.79-2.49,5.53-3.99,8.15-17.54,30.64-42.73,52.46-76.21,63.78-39.11,13.22-74.04,7.54-102.01-25.26-2.74-3.22-5.27-6.99-8.75-9.12-3.59-2.2-8.21-2.71-12.72-4.06-7.68,56.61,34.27,91.46,76.48,95.66,34.11,3.39,64.48-6.21,91.19-28.08,34.67-28.4,58.77-62.42,60.21-108.96.21-6.79,2.18-11.3,8.36-14.56,6.94-3.66,6.75-9.49,2.53-15.27M560.18,213.45c-17.84-.1-31.77,14.09-31.75,32.32.03,18.3,16.41,34.54,34.87,34.57,19.77.03,33.47-14.12,33.62-34.75.16-21.52-11.83-32.01-36.75-32.14"/>
  <path class="cls-2" d="M411.28,64.27c-1.08,2.19-2.09,4.29-3.15,6.36-.59,1.15-1.25,2.25-1.89,3.37-1.27,2.2-2.51,4.42-3.85,6.58-.25.4-.93.82-1.38.77-2.5-.23-4.98-.58-7.47-.93-2.29-.32-4.58-.68-6.87-1.05-.81-.13-1.65-.26-2.41-.56-1.9-.75-3.7-.42-5.51.28-.65.25-1.31.47-1.97.68-3.63,1.15-7.29,2.25-10.9,3.46-1.92.64-3.76,1.52-5.68,2.16-.64.21-1.43.19-2.1.04-2.49-.55-4.95-1.19-7.42-1.82-.33-.08-.68-.26-.91-.5-2.37-2.52-4.85-4.96-7.03-7.64-2.52-3.1-4.84-6.39-7.12-9.68-1.85-2.68-3.56-5.47-5.26-8.25-1.66-2.73-3-5.51-2.83-8.91.13-2.42-.38-4.86-.54-7.3-.04-.6.13-1.23.26-1.83.48-2.42.93-4.86,1.49-7.26.39-1.67.92-3.31,1.39-4.96.6-2.1,1.1-4.25,1.85-6.3,1.44-3.92,3.04-7.79,4.55-11.69.39-1.02.7-2.07,1.09-3.08.6-1.55,1.71-2.61,3.36-2.9,2.28-.4,4.59-.62,6.88-.99,1.82-.29,3.62-.71,5.43-1.03,1.74-.3,3.49-.66,5.24-.77,3.79-.23,7.58-.35,11.37-.46,2.08-.06,4.17-.12,6.24.02,2.82.19,5.63.57,8.45.88.22.02.44.16.64.27,2.79,1.54,5.57,3.09,8.36,4.63.17.09.35.27.52.26,1.71-.15,2,1.26,2.51,2.34.54,1.16.94,2.39,1.42,3.58.55,1.38,1.07,2.77,1.7,4.11,1.4,2.98,2.88,5.93,4.29,8.9.98,2.05,1.9,4.12,2.84,6.19.07.14.16.28.19.43.36,2.16.63,4.35,1.08,6.49.5,2.4,1.16,4.76,1.74,7.14.2.84.45,1.68.53,2.53.24,2.59.47,5.19.59,7.79.08,1.75-.02,3.5-.05,5.25,0,.23-.03.48-.11.7q-.5,1.58.43,2.7"/>
</svg>