<?xml version="1.0" encoding="UTF-8"?>
<svg xmlns="http://www.w3.org/2000/svg" version="1.1" viewBox="0 0 915 450">
  <defs>
    <style>
      .cls-1 {
        fill: #231f20;
      }

      .cls-2 {
        fill: #009465;
      }

      .cls-3 {
        fill: #b5decb;
      }

      .cls-4 {
        fill: #f15a31;
      }
    </style>
  </defs>
  <!-- Generator: Adobe Illustrator 28.7.1, SVG Export Plug-In . SVG Version: 1.2.0 Build 142)  -->
  <g>
    <g id="Layer_1">
      <g>
        <path class="cls-1" d="M424.26,356.52c1.35-.07,1.97.04,2.06-.13.24-.45.25-1.02.34-1.54-.57.4-1.14.79-2.4,1.67M118.34,387.48c.39.31.8.64,1.2.96.2-.31.62-.74.54-.9-.23-.44-.67-.78-1.03-1.15-.2.31-.39.61-.71,1.1M179.29,337.3c-.14-.31-.29-.62-.43-.93-1.11.51-2.21,1.02-3.32,1.53.15.32.3.64.44.96,1.1-.52,2.2-1.04,3.3-1.56M423.64,361.49c-2.58,1.41-5.15,2.82-8.07,4.42,5.04,3.88,5.82,3.47,8.07-4.42M202.81,379.99c1.58,1.3,2.64,2.17,4.1,3.38,1.98-3.32,3.81-6.41,6.27-10.55-5.69.84-7.78,3.96-10.38,7.17M208.44,399.75c.78-5.78,4.8-9.86,7.57-14.61,2.1-3.61,5.03-5.68,8.99-6.49,6.88-1.4,13.77-2.77,20.65-4.15,2.3-.46,5.18.05,6.09-3.53-4.47-2.11-8.78-1.89-13.23-.96-5.13,1.08-10.28,2.41-15.48,2.69-3.38.18-5.74.6-7.01,3.98-.35.93-1.28,1.71-2.1,2.37-6.86,5.55-7.62,12.68-5.43,20.59,1.04,1.2,2.46,2.4,3.66.77,3.77-5.14,7.27-10.48,10.87-15.74-5.02,1.2-7.28,4.95-9.71,8.58-1.51,2.25-3.24,4.34-4.88,6.5M185.68,355.9c-1.1-4.7-2.2-9.4-3.56-15.22-1.89,1.85-3.1,3.03-4.35,4.26-4.14-.85-8.09.13-11.8,2.16-3.94,2.16-7.98,4.05-12.4,4.96-8.66,1.78-8.48,1.83-11.33,9.27-1.43,3.75-3.64,7.2-6.14,12.01,2.7-2.12,4.49-3.51,6.27-4.91-.77,4.33-3.91,6.84-6.76,9.42-2.54,2.3-4.03,4.73-4.06,8.27-.02,2.42-.27,4.58,1.88,6.36.7.57.82,1.84,1.63,3.84-2.22-.09-3.72-.15-5.21-.21-1.42-3.76-2.84-7.52-4.56-12.08-3.06,7.11-2.44,8.43,4.64,12-1.44,1.11-2.79,2.37-4.35,3.28-1.43.83-3.15,1.14-4.63,1.91-4.08,2.11-6.76,1.25-8.51-3.15-1.09-2.74-1.79-5.63-2.81-8.9-3.18,1.6-2.91,3.86-2.34,6.1.36,1.44,1.21,2.76,1.52,4.21.53,2.48-.72,4.16-3.01,4.94-2.08.7-3.76.07-4.81-1.99-2.04-4.01-4.2-7.97-3.55-12.74.14-1.05.51-2.31.11-3.16-3.68-7.87,2.69-11.26,7.06-15.55-.47,1.1-.94,2.2-1.45,3.38,6.79-1.12,8.34-6,8.74-11.74.26-3.72.54-7.45,1.46-11.19,2.22,3.17,1.58,6.82,2.29,10.56.61-2.32,1.15-4.36,2.02-7.65,1.53,2.39,2.35,3.68,3.5,5.47,2.16-3.33,4.26-6.57,6.27-9.68.32.69.85,1.82,1.83,3.88.49-3.15.85-5.47,1.37-8.78,4.33,4.22,2.83,8.61,2.28,12.43-.6,4.1-2.3,8.04-3.74,12.8,4.95-3.1,8.2-6.57,10.27-11.14,1.05-2.33,1.53-4.57-1.24-6.07-2.53-1.37-2.78-3.78-2.5-6.12.83-6.85-1.84-12.9-3.85-19.55-.9,1.28-1.56,2.23-2.5,3.58-2.23-2.81-1.24-4.75.46-6.92,2.72-3.47,5.34-7.04,7.68-10.78.97-1.56,1.11-3.64,1.73-5.86,2.4.31,5.08-2.83,7.39,1.3,1.62-2.71,3.01-5.04,4.98-8.33,1.7,6.21,3.17,11.59,4.86,17.8.51-3.91,3.79-3.04,6.1-4.54,1.69,4.38,3.34,8.71,5.05,13.01.72,1.83,1.7,3.96,4,3.26,1.29-.39,2.23-2.17,3.18-3.43,2.12-2.81,4.15-5.7,6.47-8.9,1.79,1.31,3.06,2.24,4.39,3.21.57-.55,1.3-.92,1.42-1.43.42-1.83.54-3.73.93-5.56.79-3.73,1.5-7.49,2.62-11.12.74-2.4,2.34-3.64,5.4-3.21,2.03.29,4.28-1,6.8-1.68,1.31,1.36,2.79,2.87,4.24,4.39.73.76,1.32,2.04,2.17,2.25,5.35,1.29,7.7,5.23,9.64,9.88,2.03,4.86,5.87,5.03,9.85.31,1.49,2.27,2.91,4.44,4.33,6.6.36-.08.72-.16,1.08-.23-.16-3.04-.76-6.14-.36-9.1.42-3.09,1.8-6.05,2.86-9.39,4.38-.19,8.79-2.53,13.27.15,3.53,2.11,6.49,5.15,10.85,5.91,1,.17,1.72,2.26,2.47,3.52,1.31,2.18,2.55,4.41,4,6.95,1.75-.47,3.28-.89,5.53-1.5,1.76,2.57,3.43,5.52,5.61,8.04,1.86,2.15,4.1,4.15,6.55,5.58,2.21,1.29,4.93,1.73,7.88,2.69,2.35-3.54,1.25-7.6-.21-11.62-2.59-7.13-2.63-7.12,2.69-12.11.1-6.05-7.09-4.63-9.29-9.13.72-1.95,1.59-4.3,2.43-6.58-.95-3.53-6.49,3.02-5.75-3.45-2.22,2.18-3.94,3.88-5.69,5.61-2.71-2.35-1.52-4.31-.79-6.26,2.21-5.89,1.65-7.01-4.2-8.44-7.83-1.91-9.81-6.88-5.41-13.59.91-1.38,1.81-2.76,3.46-3.9-.19,1.78-.38,3.55-.6,5.53,2.82-1.12,4.82-4.85,7.8-.45,1.1,1.63,7.5-.79,9.4-3.05,7.42-8.83,14.78-17.7,22.28-26.45,2.13-2.48,3.68-5.81,7.86-5.87.94-.01,1.86-1.61,2.78-2.49,7.53-7.28,15.04-14.58,22.59-21.84.72-.69,1.62-1.21,3.13-1.18-.63.88-1.19,1.82-1.89,2.64-8.07,9.32-16.54,18.27-23.24,28.75-2.95,4.61-7.39,8.26-11.11,12.38-2.69,2.98-5.31,6.02-7.97,9.04.32.36.64.71.96,1.07,3.94-3.18,7.88-6.35,11.8-9.52,5.84,3.28,6.97,3.17,12.08-1.38,2-1.77,3.92-3.63,6.45-4.96-.98,8.83-9.13,13.26-12.73,21.99,7.68-4.43,14.94-7.22,21.12-12.04,1.68-1.31,3.41-2.59,5.03-3.97,6.12-5.2,12.77-9.18,20.7-9.13l.67,12.75,3.55-.19-.08-.08c-2.24,5.86-2.02,6.57,3.16,10.17h-.01c-.23.59-.54,1.16-.67,1.78-.74,3.5.14,4.56,3.27,3.85,1.33-.3,2.61-.82,5.33-1.69-2.45,3.13-3.97,5.07-5.63,7.2,1.64,3.28,3.21,6.44,5.15,10.33,4.34-3.2,8.17-6.02,12.33-9.09.17,5.36-1.4,8.96-5.53,11.73-3.38,2.26-3.13,2.63-1.24,7.58,4.42.57,5.27-4.33,9.24-6.36-.38,1.83-.31,3.04-.86,3.77-1.02,1.35-2.48,2.34-3.62,3.61-3.25,3.6-3.23,3.88.13,9.14,1.63-.43,3.4-.89,5.54-1.45.31,1.06.63,2.17,1.05,3.66,4.89-.11,6.86-6.09,12.27-6.32-5.02,5.26-9.69,10.17-14.51,15.22,1.18.64,1.68,1.09,1.88.98,7.57-4.27,15.81-7.41,22.23-13.64,1.94-1.89,4.62-3.02,6.96-4.5l-.07-.07c.04,4.81-3.48,6.9-6.82,9.33-3.95,2.86-7.68,6.04-11.36,9.25-1.29,1.13-2.19,2.76.33,4.92,1.29-.92,2.78-1.9,4.18-3,5.87-4.62,11.7-9.31,17.59-13.91,1.67-1.31,3.49-2.76,5.67.26-1.14,1.17-2.28,2.32-3.4,3.47-1.79,1.84-4.94,2.76-3.63,6.58.3.88-1.32,2.49-2.16,3.69-1.05,1.5-2.21,2.92-2.82,4.89,10.28-5.51,16.45-16.06,26.93-21.88-1.48,3.59-1.8,3.98-6.61,8.1-2.75,2.37-5.62,4.62-8.24,7.12-2.47,2.36-4.71,4.96-6.98,7.51-2.4,2.69-4.71,5.45-6.55,8.99,3.35-1.73,6.7-3.47,10.05-5.21.17.27.33.55.5.83-1.35,1.27-2.89,2.4-3.98,3.87-.98,1.31-2.08,3.01-2.02,4.48.06,1.4,1.29,3.34,2.52,3.91,1.15.53,3.25-.04,4.48-.83,5.29-3.39,10.41-7.04,15.63-10.54.19-.13.73.26,1.89.71-4.83,3.85-9.36,7.45-13.89,11.06.22.36.43.72.65,1.08,1.62-.9,3.24-1.79,6-3.33-1.15,2.91-1.85,4.66-2.85,7.18,2.76-1.31,4.77-2.25,6.77-3.2.2.23.4.47.6.71-.66.95-1.28,1.92-1.98,2.83-1.04,1.34-2.47,2.5-3.12,4-.49,1.14-.02,2.7.02,4.07,1.19-.09,2.55.14,3.55-.35,1.65-.81,3.07-2.08,4.97-3.43,1.7,4.94-2.52,6.85-4.25,9.45-2.42,3.63-5.93,6.62-9.32,9.47-1.5,1.25-3.86,1.48-5.83,2.17l.07.07c-4-3.96-8.62-.07-13.47-1.08,1.42-.98,2.49-1.72,4.07-2.81-3.67-2.55-6.72.48-9.77.21-3.11-.27-6.22-.64-9.71-1,1.25-4.74,9.61-1.83,8.5-8.92-6.53,3.87-13.03,2.95-19.8,1.41-2.57-.58-5.73.97-8.5,1.9-7.41,2.48-14.8,5.03-22.1,7.81-2.11.81-4.28,2.15-5.75,3.83-5.66,6.45-13.43,8.75-21.12,11.14-3.9,1.21-10.87-2.94-12.46-7.14-2.19-5.77-4.14-11.64-6.32-17.84-11.24-.04-21.47,3.23-30.16,10.2-5.98,4.8-13.23,5.7-19.97,8.14-1.6.58-3.42.67-5.52-1.25-1.89-1.73-6.13-1.65-9.16-1.21-6.75,1-13.39,2.74-20.07,4.16-5.46,1.17-8.96,4.41-11.14,9.57-2.4,5.67-5.93,10.88-6.23,17.35-.05,1.02-1.31,1.98-2.3,3.39-3.37-3.87-9.01-4.82-9.85-10.61-.09-.64-1.09-1.41-1.82-1.64-5.24-1.71-5.67-5.9-5.37-10.36.6-9.08,11.96-23.68,22.32-24.64,6.56-.61,13.03-2.3,19.51-3.62,1.33-.27,2.56-1.03,3.84-1.57-.01-.45-.02-.9-.04-1.35-1.46-.26-3.02-.99-4.36-.69-5.62,1.23-11.15,2.82-16.74,4.18-4.17,1.01-8.17,2.36-12.75.76-1.66-.58-5.04,1.33-6.5,3.06-3.8,4.5-8.27,8.78-8.69,15.31-.19,2.88-1.95,4.02-4.89,3.71-4.16-10.31,4.18-17.24,6.88-26.63-2.09.91-3.59,1.55-4.51,1.95-1.39-2.15-2.71-4.2-4.02-6.24l.08.08h0Z"/>
        <path class="cls-1" d="M88.36,339.83c-.54-.06-1.08-.12-1.61-.18-1.62,12.01-3.24,24.01-4.86,36.01,3.46-11.74,6.32-23.58,6.48-35.83M112.49,315.71c.22-2.15.46-4.42.69-6.69.44-.06.87-.11,1.31-.17,1.93,8.44,3.85,16.87,5.74,25.13-5.35,2.85-9.63,3.67-15.11,1.68-3.22-1.17-8,.96-11.68,2.54-1.6.69-2.71,3.63-3.11,5.73-.72,3.75-.71,7.64-1.05,11.46-.7,7.84-1.29,15.69-2.19,23.5-.7,6.05-5.66,10.24-11.68,10.52-2.48.12-4.95.62-7.42.99-2.6.39-4.16-1.02-3.64-3.7,2.25-11.68,4.62-23.35,7.4-35,1.08,11.06.06,22.14.11,33.33,2.5-.48.8-6.26,4.65-3.93,5.85-23.9,8.77-47.96,7.54-73.16,3.56,1.19,5.89.53,6.27-3.5,2.13.78,3.91,1.63,5.79,2.06,1.59.37,3.29.25,5.12.35,3.52,2.76,7.39,5.81,11.27,8.86"/>
        <path class="cls-1" d="M162.85,372.46c-.19,2.79-.39,5.57-.6,8.66,6.12,2.21,5.03,8.75,7.42,14.36,2.58-4.98-.81-10.03,3.04-14.03,2.95-3.07,3.66-8.11,8.59-10.55.9,3.92-1.86,6.57-2.31,9.68-.52,3.58-1.07,7.17-1.94,10.67-.79,3.18-.08,6.9-3.22,9.78-3.91-2.07-9.16-2.5-8.93-8.66-2.23-1.1-5.39-1.63-6.26-3.33-1.11-2.19-.7-5.36-.36-8.03.39-3.02,1.42-5.96,2.18-8.94.79.13,1.59.26,2.38.38"/>
        <path class="cls-1" d="M62.92,368.71c-1.36,6.21-2.65,12.44-4.12,18.62-.55,2.31-1.54,4.51-2.33,6.76-.5-.09-1-.18-1.5-.27-.22-1.55-.8-3.14-.62-4.64,1.42-11.84,2.22-23.83,4.74-35.44,1.95-8.98,3.54-17.82,3.62-27,.3,5.73.85,11.46.84,17.19-.02,8.3-.44,16.59-.69,24.89l.05-.1h0Z"/>
        <path class="cls-1" d="M439.09,233.74c-7.3,9.93-13.83,20.54-25.44,26.93.34-.81.46-1.84,1.04-2.4,3.84-3.69,6.67-8.1,9.78-12.37,3.66-5.02,8.64-9.07,13.05-13.54.52.46,1.04.92,1.56,1.38"/>
        <path class="cls-1" d="M197.67,232.46c-1.72-5.03.49-8.82,2.14-12.48,4.1-9.05,10.6-17.07,15.53-19.26-5.97,10.73-11.65,20.93-17.67,31.74"/>
        <path class="cls-1" d="M222.42,248.55c-7.4-1.47-9.18-5.64-5.26-10.73,1.53-1.99,3.01-4.02,4.72-6.32.78.4,1.94.64,2.06,1.13,1.31,5.53-.69,10.63-1.52,15.93"/>
        <path class="cls-1" d="M152.89,363.56c1.95,6.33,3.32,12.58-1.41,19.01-4.83-7.16-2.03-13.12,1.41-19.01"/>
        <path class="cls-1" d="M451.18,286.04c.87,1.37,1.61,2.52,2.51,3.92,1.53-.46,3.05-.91,4.68-1.39-.08.69.02,1.22-.19,1.43-2.07,2.11-4.07,4.3-6.34,6.17-.97.8-2.82,1.55-3.76,1.15-2.01-.87-1.37-2.79-.56-4.38,1.12-2.19,2.31-4.35,3.67-6.9"/>
        <path class="cls-1" d="M62.86,368.81c1.17-4.42,2.33-8.85,3.49-13.27.46,9.06-.19,17.95-2.63,27.84-3.07-5.64-.28-10.22-.81-14.67,0,0-.05.1-.05.1"/>
        <path class="cls-1" d="M380.34,200.17c-5.17,6.52-11.48,11.66-19.02,15.27,5.05-6.64,11.46-11.64,19.02-15.27"/>
        <path class="cls-1" d="M230.7,252.12c-.16-7.04,4.38-15.51,9.81-18.96-3.63,12.01-6.19,17.16-9.81,18.96"/>
        <path class="cls-1" d="M225.89,250.26c-2.19-7.26.41-14.28,6.84-18.07-1.29,7-4.81,12.26-6.84,18.07"/>
        <path class="cls-1" d="M413.02,179.39c5.15-7.35,7.1-16.54,13.06-23.42.55.31,1.09.61,1.64.92-4.31,7.79-8.62,15.58-12.93,23.37-.59-.29-1.18-.58-1.78-.87"/>
        <path class="cls-1" d="M387.57,208.41c-.88-4.96,1.53-7.95,8.08-10.58.82,3.85-.31,5.37-8.08,10.58"/>
        <path class="cls-1" d="M387.95,272.92c2.07-4.7,9.29-11.26,18.1-17.04-5.3,7.96-12.39,11.74-18.1,17.04"/>
        <path class="cls-1" d="M427.08,302.09c2.24-5.42,6.97-8.23,12.02-11.84-2.22,6.6-4.99,11.49-12.09,11.77l.07.07h0Z"/>
        <path class="cls-1" d="M210.45,240.9c-.81-5.6.77-10.06,4.81-13.61-.07,7.14-1.43,10.99-4.81,13.61"/>
        <path class="cls-1" d="M211.44,225.4c-1.68,4.91-2.96,8.69-4.48,13.14-3.21-5.59-1.68-10.4,4.48-13.14"/>
        <path class="cls-1" d="M250.35,264.71c-1.14.12-2.79.76-3.31.24-.73-.71-1.15-2.5-.76-3.44,1.27-3.08,2.83-6.08,6.78-8.86-.95,3.79-1.61,6.4-2.26,9-.15,1.02-.3,2.04-.45,3.06"/>
        <path class="cls-1" d="M433.53,376.27c-3.99,4.01-9.19,4.53-14.42,4.96,4.33-3.07,9.48-3.77,14.48-4.89,0,0-.06-.07-.06-.07"/>
        <path class="cls-1" d="M448.97,263.46q3.18,4.27-1.89,6.58c.77-2.69,1.33-4.64,1.89-6.58"/>
        <path class="cls-1" d="M166.14,308.53c-.39-3.39.73-6.08,4.2-8.96-.26,4.37-2.9,6.36-4.2,8.96"/>
        <path class="cls-1" d="M206.54,265.82l-9.14.48c2.8-2.49,5.89-2.16,9.14-.48"/>
        <path class="cls-1" d="M197.16,375.49c2.01-2.35,4.02-4.7,6.03-7.04.38.32.76.64,1.13.96-2.01,2.38-4.01,4.77-6.01,7.15-.39-.36-.77-.71-1.15-1.07"/>
        <path class="cls-1" d="M390.44,214.7q-.19,4.53-5.2,6.46c2.32-2.88,3.76-4.67,5.2-6.46"/>
        <path class="cls-1" d="M386.55,149.63c-1.81,3.45-3.74,5.07-7.45,5.55,1.33-3.72,3.77-4.64,7.45-5.55"/>
        <path class="cls-1" d="M160.93,288.74c-.59,2.95-1.02,5.1-1.51,7.53q-2.39-2.88,1.51-7.53"/>
        <path class="cls-1" d="M401.64,283.37c-1.46,2.29-2.24,3.51-3.02,4.73-.64-.46-1.73-.84-1.82-1.4-.38-2.13.95-2.99,4.84-3.32"/>
        <path class="cls-1" d="M104.93,289.38c-.01,2.32-.02,4.64-.04,6.96-2.7-2.42-2.2-4.72.04-6.96"/>
        <path class="cls-1" d="M255.73,270.85c-.49-1.99-.97-3.99-1.48-6.09q3.4,1.8,1.48,6.09"/>
        <path class="cls-1" d="M411.3,378.54c1.7-.66,3.39-1.32,6.26-2.43-1.46,4.12-3.5,4.19-5.54,4.25-.24-.61-.48-1.21-.72-1.82"/>
        <path class="cls-1" d="M420.33,266.25c-1.86,1.63-3.72,3.27-6.08,5.34q1.71-4.16,6.08-5.34"/>
        <path class="cls-1" d="M393.9,208.6c.25-.75.26-1.53.65-1.83.78-.61,1.77-.97,2.68-1.44.34.69.76,1.14.66,1.39-.68,1.72-1.69,2.9-3.99,1.88"/>
        <path class="cls-1" d="M400.32,200.93c1.09-1.71,2.19-3.42,3.28-5.12.5.31,1,.61,1.5.92-1.05,1.7-2.09,3.41-3.14,5.11-.55-.3-1.1-.6-1.64-.91"/>
        <path class="cls-1" d="M185.61,355.81c-1.78,2.25-3.56,4.5-6.11,7.72q1.48-5.41,6.19-7.64l-.08-.08h0Z"/>
        <path class="cls-1" d="M366.12,191.42c-1.83,1.48-3.65,2.96-5.47,4.45.26-3.37,2.45-4.41,5.47-4.45"/>
        <path class="cls-1" d="M166.72,379.14c.41-1.42.82-2.85,1.24-4.27.34.08.68.15,1.03.22-.27,1.43-.53,2.85-.8,4.28-.49-.08-.98-.16-1.47-.23"/>
        <path class="cls-1" d="M451.58,279.51c-1.15.87-2.3,1.74-3.46,2.62-.27-.33-.53-.66-.8-1,1.09-.97,2.17-1.93,3.26-2.9.33.43.67.85,1.01,1.28"/>
        <path class="cls-1" d="M384.13,244.38c-1.37,1.34-2.75,2.69-4.12,4.03-.26-.27-.52-.54-.77-.81,1.37-1.35,2.73-2.7,4.1-4.05.27.28.53.56.8.84"/>
        <path class="cls-1" d="M250.35,264.71c.15-1.02.31-2.05.45-3.06.59,1.14,1.88,2.48,1.62,3.36-.6,2.03-1.53,1.1-2.08-.3"/>
        <path class="cls-1" d="M367.95,236.27c.44.88.94,1.44.82,1.76-.17.46-.77.96-1.26,1.04-.37.06-.84-.52-1.26-.81.48-.56.95-1.12,1.7-1.99"/>
        <path class="cls-1" d="M240.06,259.02c.08-1.1.16-2.2.24-3.29.44.03.89.06,1.33.09-.1,1.1-.21,2.19-.31,3.29-.42-.03-.84-.06-1.26-.09"/>
        <path class="cls-1" d="M383.9,213.92c1.13-.91,2.27-1.81,3.4-2.72.32.36.65.71.98,1.07-1.08.97-2.17,1.95-3.26,2.92-.38-.42-.75-.85-1.12-1.27"/>
        <path class="cls-1" d="M257.09,257.68c-.76.64-1.52,1.28-2.31,1.87-.03.02-.48-.54-.74-.83.77-.64,1.54-1.28,2.31-1.92.24.29.49.59.74.89"/>
        <path class="cls-1" d="M253,219.6l-3.19.17c-.05-.28-.11-.55-.16-.83,1.07-.27,2.13-.54,3.2-.81.05.49.1.98.15,1.46"/>
        <path class="cls-1" d="M112.26,289.63c-.14.86-.27,1.73-.47,2.58,0,.03-.69-.1-1.06-.15.14-.87.28-1.74.43-2.61.37.06.73.12,1.1.18"/>
        <path class="cls-1" d="M370.69,256.21c1.27-1.58,2.55-3.16,3.82-4.75-.07,2.75-1.6,4.11-3.9,4.67l.08.08h0Z"/>
        <path class="cls-1" d="M425.03,259.75c.89-.67,1.79-1.35,2.68-2.02.26.24.51.47.77.71-.75.8-1.5,1.61-2.25,2.41-.4-.37-.8-.74-1.21-1.1"/>
        <path class="cls-1" d="M401.76,188.04c-.59.45-1.16.95-1.79,1.32-.09.05-.51-.45-.77-.7.69-.49,1.38-.98,2.07-1.47.17.28.33.56.49.85"/>
        <path class="cls-1" d="M373.77,266.29c.95-1.08,1.9-2.17,2.85-3.25.27.33.54.65.81.98-1.22.75-2.45,1.51-3.67,2.26h.01Z"/>
        <path class="cls-1" d="M170.42,321.88c.33-.5.53-.8.73-1.1.4.3.84.56,1.15.92.06.07-.42.84-.55.81-.46-.1-.88-.4-1.34-.63"/>
        <path class="cls-1" d="M436.5,248.93c.31.14.62.29.93.43-.17.34-.4.99-.51.97-.44-.08-.84-.37-1.26-.58.28-.27.56-.54.84-.82"/>
        <path class="cls-1" d="M320.14,201.14c-.6.63-1.19,1.25-1.79,1.88-.37-.33-.73-.67-1.1-1,.47-.75.93-1.49,1.4-2.24.5.45.99.9,1.49,1.35"/>
        <path class="cls-4" d="M855.75,217.93c.22,2.46.61,4.91.64,7.37.17,15.32.18,30.64.4,45.96.2,13.18.68,26.37.91,39.55.59,34.89,1.11,69.79,1.64,104.68.02,1.49.04,3-.19,4.46-.71,4.52-3.27,6.31-8.83,6.17-6.39-.16-12.77-.69-19.15-.59-27.05.43-54.1,1.04-81.15,1.56-20.66.39-41.32.75-61.98,1.1-1.7.03-3.41.02-5.1-.15-4.98-.49-6.29-2.18-3.92-6.64,3.88-7.31,7.62-14.95,12.89-21.21,7.8-9.25,16.81-17.55,27.02-24.22,5.88-3.84,9.17-9.2,11.89-15.36,5.25-11.88,10.83-23.61,16.21-35.43,2.98-6.55,7.67-11.83,12.91-16.49,12.07-10.77,24.37-21.3,36.74-31.74,7.47-6.31,15.96-11.57,22.7-18.56,10.02-10.39,18.89-21.88,28.23-32.92,2.27-2.68,4.51-5.38,6.76-8.08.46.18.92.35,1.38.52h0ZM833.15,269.22c-1.22.25-2.43.5-3.64.74.11.28.23.56.35.84,1.07-.58,2.14-1.17,3.21-1.75,1.71.73,3.39,1.23,4.72-.67.89,1.07,1.79,2.15,2.68,3.22.25-.31.51-.62.77-.93-1.15-.76-2.3-1.51-3.45-2.27,1.08-.82,2.16-1.65,3.32-2.53-.95-1.9-2.11-2.24-3.52-.98-1.54,1.37-2.96,2.89-4.44,4.33h0ZM848.76,279.58c-6.8.28-8.63,2.36-6.87,7.15.99,2.7,2.59,5.19,3.91,7.77.47-.07.94-.14,1.41-.21.5-4.7.99-9.4,1.55-14.71h0ZM848.21,262.68c-1.71,1.57-3.05,2.24-3.41,3.25-.54,1.53-.7,3.34-.46,4.95.18,1.15,1.28,2.17,1.96,3.25.88-1,2.37-1.94,2.49-3.03.25-2.18-.24-4.44-.58-8.42h0ZM829.45,280.57c1.98.72,4,1.61,5.63-.83-2.44-2.39-4.03-.54-5.63.83h0ZM844.38,258.5c.5-.2,1.02-.4,1.55-.61-.28-.39-.57-1.12-.82-1.1-.49.04-.95.47-1.42.75.2.28.41.57.69.96h0Z"/>
        <path class="cls-3" d="M259.83,154.27c-13.51-11.65-21.76-24.81-34.91-35.39-8.87,7.44-16.9,14.57-25.41,21.19-7.96,6.19-14.07,14.63-25.27,17.98-15.08-8.21-21.53-24.1-35.75-32.36-7.31.36-12.11,4.24-17.21,7.47-11.34,7.2-22.58,14.55-33.93,21.73-3.07,1.94-6.29,3.78-9.68,5.2-3.47,1.46-8.22-.77-8.94-4.19-.71-3.34-1.03-6.78-1.06-10.18-.22-25.1-.32-50.19-.46-75.29-.01-2.28-.17-4.58,0-6.84.66-8.32,3.49-10.92,12.79-11.77,2.51-.23,5.06-.16,7.59-.18,28.49-.25,56.97-.61,85.46-.71,71.55-.23,143.09-.31,214.64-.53,15.19-.05,30.38-.61,45.57-.67,5.57-.02,11.14.73,15.38,1.03,5.81,5.16,5.56,10.49,6.09,15.51,4,38.14,4.73,67.79,2.03,78.13-5.07,2.18-8.18-1.3-11.73-3.45-14.21-8.61-28.38-17.28-42.65-25.82-2.6-1.55-5.55-2.61-9.19-4.29-3.92,2.77-8.05,5.26-11.6,8.29-8.69,7.44-17.1,15.13-25.64,22.71-4.45,3.95-8.59,8.3-15.37,10.4-14.6-7.86-20.46-23.02-34.07-33.01-2.79,1.72-5.98,3.28-8.62,5.38-8.51,6.78-16.73,13.84-25.23,20.63-3.7,2.95-7.8,5.5-12.84,9.01h0Z"/>
        <path class="cls-3" d="M733.39,283.18c0,9.29-.07,18.59.03,27.88.06,4.41-1.71,7.47-5.2,10.21-6.93,5.42-13.44,11.39-20.25,16.96-9.47,7.75-19.21,15.16-28.56,23.05-6.97,5.88-13.34,12.48-20.28,18.4-6.01,5.13-12.22,10.1-18.85,14.35-1.86,1.19-5.63-.06-8.33-.85-11.13-3.25-22.29-6.5-33.26-10.26-10.09-3.46-19.91-7.68-29.93-11.35-13.76-5.04-27.5-10.19-41.44-14.67-5.81-1.87-8.14-6.29-10.2-10.89-3.39-7.55-6.19-15.38-9.05-23.16-5.2-14.18-10.46-28.34-15.29-42.65-2.55-7.55-4.84-15.3-6.06-23.15-.69-4.39.49-9.32,1.76-13.73,3.52-12.15,7.33-24.22,11.4-36.19,3.23-9.51,6.2-19.27,10.8-28.12,3.85-7.39,8.11-14.45,10.7-22.47,2.56-7.92,8.95-11.95,16.54-14.41,6.8-2.21,13.51-4.69,20.35-6.76,11.64-3.53,23.54-6.29,34.96-10.39,12.02-4.3,24.35-6.99,36.81-9.25,3.11-.56,6.4-.23,9.6-.11,11.91.43,23.82,1.35,35.73,1.28,7.78-.04,13.86,2.13,19.02,8.04,7.61,8.73,17.27,15.65,23.19,25.86,1.41,2.44,2.14,5.39,2.72,8.2,1.98,9.78,3.83,19.59,5.6,29.4,1.72,9.55,3.27,19.13,4.9,28.7.16.99.41,1.98.45,2.98.93,21.03,1.83,42.05,2.75,63.07-.21.01-.41.02-.61.03"/>
        <path class="cls-2" d="M749.09,185.62c-.26-3.37-.65-6.74-.73-10.12-.05-2.62.19-5.26.48-7.87.31-2.8.7-5.59,1.26-8.35.81-3.94,1.82-7.84,2.7-11.76.74-3.28,1.37-6.59,2.16-9.85.28-1.16.75-2.33,1.41-3.32.85-1.27,1.15-5.06.33-6.32-2.35-3.65-4.61-7.37-7.01-10.99-3.16-4.77-6.47-9.45-9.62-14.24-1.11-1.69-1.95-3.56-2.89-5.36-1.75-3.34-3.43-6.71-5.26-10.01-.35-.63-1.2-1.16-1.93-1.36-1.5-.42-3.06-.71-4.62-.84-8.91-.76-17.83-1.58-26.76-2.14-5.87-.37-10.1-3.26-13.73-7.59-1.29-1.55-2.91-2.95-4.64-3.98-3.15-1.87-4.09-5.25-5.98-7.97-2.75-3.94-4.44-8.54-8.34-11.78-2.14-1.78-3.54-4.44-5.27-6.7-1.96-2.56-3.93-5.11-5.86-7.7-1.05-1.4-2.18-1.46-3.68-.67-6.18,3.26-12.42,6.42-18.61,9.67-1.24.65-2.32,1.58-3.51,2.32-1.95,1.2-3.99,2.26-5.87,3.54-1.34.91-2.52,2.07-3.72,3.18-1.37,1.27-2.5,2.88-4.04,3.86-8.33,5.32-16.66,10.64-25.17,15.64-4.24,2.49-8.98,3.47-14.06,3.24-6.81-.31-13.66.09-20.48-.19-3.42-.14-6.85-.92-10.18-1.76-4.33-1.1-7.28.66-8.41,5.04-.92,3.57-2.26,7.02-3.37,10.54-.61,1.93-1.07,3.92-1.7,5.84-.64,1.94-1.34,3.87-2.15,5.74-2.58,5.96-5.2,11.9-7.88,17.82-.46,1-1.27,1.85-2,2.71-5.83,6.81-11.64,13.62-17.51,20.39-4.06,4.68-8.28,9.23-12.29,13.96-4.19,4.93-8.15,10.04-12.31,14.99-3.53,4.2-7.21,8.27-10.83,12.39h-25.51v-57.51c1.35-1.59,2.54-3.36,4.08-4.73,4.77-4.2,8.84-8.99,12.57-14.1.76-1.03,1.9-1.77,2.8-2.71,4.25-4.46,8.54-8.89,12.7-13.44,2.63-2.86,5.74-5.17,8-8.52,2.19-3.25,5.88-5.44,8.38-8.52,3.85-4.72,7.9-9.03,12.84-12.71,3.28-2.44,6.73-4.03,10.36-5.59,1.48-.63,2.59-2.12,4.06-2.8,3.66-1.7,7.51-3,11.15-4.75,8.11-3.9,16.11-8.02,24.19-11.97,5.32-2.6,10.71-5.03,16.05-7.57,2.68-1.27,5.31-2.66,7.99-3.91,4.84-2.26,9.9-3.54,15.29-3.55,8.99-.03,18-.47,26.98-.17,4.91.16,9.78,1.53,14.68,2.31,3.41.54,6.87,1.58,10.25,1.39,4.78-.28,9,1.43,13.19,2.93,6.16,2.2,12.39,3.12,18.86,3.5,4.01.23,7.96,1.44,11.94,2.21.98.19,1.94.52,2.92.56,6.47.27,12.82,1.04,19.1,2.8,3.3.93,6.88,1,10.34,1.12,3.1.11,5.15,1.04,7.29,3.67,2.73,3.37,6.76,5.69,10.18,8.52,2.82,2.32,5.76,4.54,8.3,7.14,2.77,2.83,5.21,6,7.64,9.14,1.68,2.17,3.07,4.56,4.66,6.81.56.78,1.4,1.36,1.97,2.14,1.37,1.87,2.54,3.91,4,5.7,2.1,2.57,4.41,4.97,6.59,7.47,1.18,1.36,2.33,2.76,3.43,4.2,4.29,5.61,8.65,11.17,12.78,16.9,1.61,2.23,3.31,4.6,3.13,7.65-.04.56.04,1.26.36,1.67,2.02,2.64,1.61,5.97,2.62,8.88,1.26,3.63,2.74,7.19,3.9,10.86,1.43,4.55,2.55,9.19,3.95,13.75,1.08,3.54,2.46,6.98,3.58,10.51,1.89,5.96,3.68,11.96,5.52,17.94.29.94.65,1.86.98,2.8h-62.02Z"/>
      </g>
    </g>
  </g>
</svg>